<?xml version="1.0" encoding="utf-8"?>
<!-- Generator: Adobe Illustrator 27.5.0, SVG Export Plug-In . SVG Version: 6.00 Build 0)  -->
<svg version="1.1" id="Layer_1" xmlns="http://www.w3.org/2000/svg" xmlns:xlink="http://www.w3.org/1999/xlink" x="0px" y="0px"
	 viewBox="0 0 3000 2000" style="enable-background:new 0 0 3000 2000;" xml:space="preserve">
<g>
	<rect style="fill:#FFFFFF;" width="3000" height="2000"/>
	<g>
		<path style="fill:#EBF2F9;" d="M545.083,872.078c395.959,68.345,163.799-687.456,703.207-366.643
			c214.514,127.582,523.395-26.81,819.194,57.577c271.656,77.499,204.737,331.789,178.452,414.99
			c-53.095,168.065,211.342,101.035,364.619,173.244c240.431,113.267,215.105,570.927-12.032,572.829
			c-227.138,1.903-2031.443-4.8-2031.443-4.8s-99.128-64.144-151.759-196.351C307.426,1251.9,196.421,811.897,545.083,872.078z"/>
		<g>
			<g>
				<polygon style="fill:#D5E7F7;" points="2181.491,732.277 2181.491,618.946 2147.087,618.946 2147.087,424.079 1962.627,424.079 
					1962.627,618.946 1790.171,618.946 1790.171,351.841 1599.867,279.812 1599.867,507.542 1556.47,507.542 1556.47,204.27 
					1366.166,267.339 1366.166,722.854 1125.488,722.854 1125.488,991.912 1035.561,991.912 1035.561,1059.693 829.001,1059.693 
					829.001,942.975 710.407,942.975 710.407,625.815 563.908,625.815 563.908,1211.288 563.908,1720.743 689.478,1720.743 
					710.407,1720.743 829.001,1720.743 896.038,1720.743 1003.406,1720.743 1035.561,1720.743 1125.488,1720.743 1209.965,1720.743 
					1366.166,1720.743 1414.003,1720.743 1509.176,1720.743 1556.47,1720.743 1599.867,1720.743 1699.482,1720.743 
					1767.294,1720.743 1790.171,1720.743 1962.627,1720.743 2144.006,1720.743 2147.087,1720.743 2181.491,1720.743 
					2328.466,1720.743 2328.466,732.277 				"/>
				<rect x="1394.605" y="290.401" style="fill:#C4D9ED;" width="128.376" height="47.012"/>
				<rect x="1394.605" y="378.719" style="fill:#C4D9ED;" width="128.376" height="47.012"/>
				<rect x="1394.605" y="458.176" style="fill:#C4D9ED;" width="128.376" height="47.012"/>
				<g>
					<rect x="563.908" y="839.49" style="fill:#C4D9ED;" width="149.212" height="72.567"/>
					<rect x="563.908" y="1062.236" style="fill:#C4D9ED;" width="147.787" height="72.567"/>
					<rect x="563.908" y="1171.856" style="fill:#C4D9ED;" width="147.787" height="72.567"/>
				</g>
				<rect x="561.5" y="1286.542" style="fill:#C4D9ED;" width="147.787" height="72.567"/>
				<rect x="561.5" y="1398.858" style="fill:#C4D9ED;" width="147.787" height="72.567"/>
				<rect x="561.5" y="1513.543" style="fill:#C4D9ED;" width="147.787" height="72.567"/>
				<g>
					<rect x="1624.927" y="458.176" style="fill:#C4D9ED;" width="135.023" height="47.012"/>
					<rect x="1624.927" y="379.436" style="fill:#C4D9ED;" width="135.023" height="47.012"/>
					<rect x="1391.336" y="535.217" style="fill:#C4D9ED;" width="368.615" height="47.013"/>
					<rect x="1391.336" y="605.906" style="fill:#C4D9ED;" width="368.615" height="47.012"/>
					<rect x="1391.336" y="676.117" style="fill:#C4D9ED;" width="368.615" height="45.212"/>
				</g>
				<rect x="563.908" y="952.616" style="fill:#C4D9ED;" width="147.787" height="72.567"/>
				<g>
					<rect x="1162.342" y="766.95" style="fill:#C4D9ED;" width="32.261" height="45.472"/>
					<rect x="1222.67" y="766.95" style="fill:#C4D9ED;" width="32.261" height="45.472"/>
					<rect x="1281.648" y="766.95" style="fill:#C4D9ED;" width="32.261" height="45.472"/>
					<rect x="1337.568" y="766.95" style="fill:#C4D9ED;" width="32.261" height="45.472"/>
					<rect x="1394.561" y="766.95" style="fill:#C4D9ED;" width="32.261" height="45.472"/>
					<rect x="1452.208" y="766.95" style="fill:#C4D9ED;" width="32.261" height="45.472"/>
					<rect x="1512.537" y="766.95" style="fill:#C4D9ED;" width="32.26" height="45.472"/>
					<rect x="1571.514" y="766.95" style="fill:#C4D9ED;" width="32.261" height="45.472"/>
					<rect x="1627.435" y="766.95" style="fill:#C4D9ED;" width="32.26" height="45.472"/>
					<rect x="1684.428" y="766.95" style="fill:#C4D9ED;" width="32.261" height="45.472"/>
					<rect x="1743.82" y="766.95" style="fill:#C4D9ED;" width="32.261" height="45.472"/>
					<rect x="1804.149" y="766.95" style="fill:#C4D9ED;" width="32.26" height="45.472"/>
					<rect x="1863.127" y="766.95" style="fill:#C4D9ED;" width="32.26" height="45.472"/>
					<rect x="1919.047" y="766.95" style="fill:#C4D9ED;" width="32.26" height="45.472"/>
					<rect x="1976.04" y="766.95" style="fill:#C4D9ED;" width="32.262" height="45.472"/>
					<rect x="2033.687" y="766.95" style="fill:#C4D9ED;" width="32.261" height="45.472"/>
					<rect x="2094.016" y="766.95" style="fill:#C4D9ED;" width="32.26" height="45.472"/>
					<rect x="2152.994" y="766.95" style="fill:#C4D9ED;" width="32.26" height="45.472"/>
					<rect x="2208.914" y="766.95" style="fill:#C4D9ED;" width="32.261" height="45.472"/>
					<rect x="2265.907" y="766.95" style="fill:#C4D9ED;" width="32.26" height="45.472"/>
					<rect x="1162.342" y="847.192" style="fill:#C4D9ED;" width="32.261" height="45.472"/>
					<rect x="1222.67" y="847.192" style="fill:#C4D9ED;" width="32.261" height="45.472"/>
					<rect x="1281.648" y="847.192" style="fill:#C4D9ED;" width="32.261" height="45.472"/>
					<rect x="1337.568" y="847.192" style="fill:#C4D9ED;" width="32.261" height="45.472"/>
					<rect x="1394.561" y="847.192" style="fill:#C4D9ED;" width="32.261" height="45.472"/>
					<rect x="1452.208" y="847.192" style="fill:#C4D9ED;" width="32.261" height="45.472"/>
					<rect x="1512.537" y="847.192" style="fill:#C4D9ED;" width="32.26" height="45.472"/>
					<rect x="1571.514" y="847.192" style="fill:#C4D9ED;" width="32.261" height="45.472"/>
					<rect x="1627.435" y="847.192" style="fill:#C4D9ED;" width="32.26" height="45.472"/>
					<rect x="1684.428" y="847.192" style="fill:#C4D9ED;" width="32.261" height="45.472"/>
					<rect x="1743.82" y="847.192" style="fill:#C4D9ED;" width="32.261" height="45.472"/>
					<rect x="1804.149" y="847.192" style="fill:#C4D9ED;" width="32.26" height="45.472"/>
					<rect x="1863.127" y="847.192" style="fill:#C4D9ED;" width="32.26" height="45.472"/>
					<rect x="1919.047" y="847.192" style="fill:#C4D9ED;" width="32.26" height="45.472"/>
					<rect x="1976.04" y="847.192" style="fill:#C4D9ED;" width="32.262" height="45.472"/>
					<rect x="2033.687" y="847.192" style="fill:#C4D9ED;" width="32.261" height="45.472"/>
					<rect x="2094.016" y="847.192" style="fill:#C4D9ED;" width="32.26" height="45.472"/>
					<rect x="2152.994" y="847.192" style="fill:#C4D9ED;" width="32.26" height="45.472"/>
					<rect x="2208.914" y="847.192" style="fill:#C4D9ED;" width="32.261" height="45.472"/>
					<rect x="2265.907" y="847.192" style="fill:#C4D9ED;" width="32.26" height="45.472"/>
					<rect x="1162.342" y="926.205" style="fill:#C4D9ED;" width="32.261" height="45.472"/>
					<rect x="1222.67" y="926.205" style="fill:#C4D9ED;" width="32.261" height="45.472"/>
					<rect x="1281.648" y="926.205" style="fill:#C4D9ED;" width="32.261" height="45.472"/>
					<rect x="1337.568" y="926.205" style="fill:#C4D9ED;" width="32.261" height="45.472"/>
					<rect x="1394.561" y="926.205" style="fill:#C4D9ED;" width="32.261" height="45.472"/>
					<rect x="1452.208" y="926.205" style="fill:#C4D9ED;" width="32.261" height="45.472"/>
					<rect x="1512.537" y="926.205" style="fill:#C4D9ED;" width="32.26" height="45.472"/>
					<rect x="1571.514" y="926.205" style="fill:#C4D9ED;" width="32.261" height="45.472"/>
					<rect x="1627.435" y="926.205" style="fill:#C4D9ED;" width="32.26" height="45.472"/>
					<rect x="1684.428" y="926.205" style="fill:#C4D9ED;" width="32.261" height="45.472"/>
					<rect x="1743.82" y="926.205" style="fill:#C4D9ED;" width="32.261" height="45.472"/>
					<rect x="1804.149" y="926.205" style="fill:#C4D9ED;" width="32.26" height="45.472"/>
					<rect x="1863.127" y="926.205" style="fill:#C4D9ED;" width="32.26" height="45.472"/>
					<rect x="1919.047" y="926.205" style="fill:#C4D9ED;" width="32.26" height="45.472"/>
					<rect x="1976.04" y="926.205" style="fill:#C4D9ED;" width="32.262" height="45.472"/>
					<rect x="2033.687" y="926.205" style="fill:#C4D9ED;" width="32.261" height="45.472"/>
					<rect x="2094.016" y="926.205" style="fill:#C4D9ED;" width="32.26" height="45.472"/>
					<rect x="2152.994" y="926.205" style="fill:#C4D9ED;" width="32.26" height="45.472"/>
					<rect x="2208.914" y="926.205" style="fill:#C4D9ED;" width="32.261" height="45.472"/>
					<rect x="2265.907" y="926.205" style="fill:#C4D9ED;" width="32.26" height="45.472"/>
					<rect x="1162.342" y="1010.152" style="fill:#C4D9ED;" width="32.261" height="45.472"/>
					<rect x="1222.67" y="1010.152" style="fill:#C4D9ED;" width="32.261" height="45.472"/>
					<rect x="1281.648" y="1010.152" style="fill:#C4D9ED;" width="32.261" height="45.472"/>
					<rect x="1337.568" y="1010.152" style="fill:#C4D9ED;" width="32.261" height="45.472"/>
					<rect x="1394.561" y="1010.152" style="fill:#C4D9ED;" width="32.261" height="45.472"/>
					<rect x="1452.208" y="1010.152" style="fill:#C4D9ED;" width="32.261" height="45.472"/>
					<rect x="1512.537" y="1010.152" style="fill:#C4D9ED;" width="32.26" height="45.472"/>
					<rect x="1571.514" y="1010.152" style="fill:#C4D9ED;" width="32.261" height="45.472"/>
					<rect x="1627.435" y="1010.152" style="fill:#C4D9ED;" width="32.26" height="45.472"/>
					<rect x="1684.428" y="1010.152" style="fill:#C4D9ED;" width="32.261" height="45.472"/>
					<rect x="1743.82" y="1010.152" style="fill:#C4D9ED;" width="32.261" height="45.472"/>
					<rect x="1804.149" y="1010.152" style="fill:#C4D9ED;" width="32.26" height="45.472"/>
					<rect x="1863.127" y="1010.152" style="fill:#C4D9ED;" width="32.26" height="45.472"/>
					<rect x="1919.047" y="1010.152" style="fill:#C4D9ED;" width="32.26" height="45.472"/>
					<rect x="1976.04" y="1010.152" style="fill:#C4D9ED;" width="32.262" height="45.472"/>
					<rect x="2033.687" y="1010.152" style="fill:#C4D9ED;" width="32.261" height="45.472"/>
					<rect x="2094.016" y="1010.152" style="fill:#C4D9ED;" width="32.26" height="45.472"/>
					<rect x="2152.994" y="1010.152" style="fill:#C4D9ED;" width="32.26" height="45.472"/>
					<rect x="2208.914" y="1010.152" style="fill:#C4D9ED;" width="32.261" height="45.472"/>
					<rect x="2265.907" y="1010.152" style="fill:#C4D9ED;" width="32.26" height="45.472"/>
					<rect x="1162.342" y="1090.395" style="fill:#C4D9ED;" width="32.261" height="45.471"/>
					<rect x="1222.67" y="1090.395" style="fill:#C4D9ED;" width="32.261" height="45.471"/>
					<rect x="1281.648" y="1090.395" style="fill:#C4D9ED;" width="32.261" height="45.471"/>
					<rect x="1337.568" y="1090.395" style="fill:#C4D9ED;" width="32.261" height="45.471"/>
					<rect x="1394.561" y="1090.395" style="fill:#C4D9ED;" width="32.261" height="45.471"/>
					<rect x="1452.208" y="1090.395" style="fill:#C4D9ED;" width="32.261" height="45.471"/>
					<rect x="1512.537" y="1090.395" style="fill:#C4D9ED;" width="32.26" height="45.471"/>
					<rect x="1571.514" y="1090.395" style="fill:#C4D9ED;" width="32.261" height="45.471"/>
					<rect x="1627.435" y="1090.395" style="fill:#C4D9ED;" width="32.26" height="45.471"/>
					<rect x="1684.428" y="1090.395" style="fill:#C4D9ED;" width="32.261" height="45.471"/>
					<rect x="1743.82" y="1090.395" style="fill:#C4D9ED;" width="32.261" height="45.471"/>
					<rect x="1804.149" y="1090.395" style="fill:#C4D9ED;" width="32.26" height="45.471"/>
					<rect x="1863.127" y="1090.395" style="fill:#C4D9ED;" width="32.26" height="45.471"/>
					<rect x="1919.047" y="1090.395" style="fill:#C4D9ED;" width="32.26" height="45.471"/>
					<rect x="1976.04" y="1090.395" style="fill:#C4D9ED;" width="32.262" height="45.471"/>
					<rect x="2033.687" y="1090.395" style="fill:#C4D9ED;" width="32.261" height="45.471"/>
					<rect x="2094.016" y="1090.395" style="fill:#C4D9ED;" width="32.26" height="45.471"/>
					<rect x="2208.914" y="1090.395" style="fill:#C4D9ED;" width="32.261" height="45.471"/>
					<rect x="2152.993" y="1090.395" style="fill:#C4D9ED;" width="32.262" height="45.471"/>
					<rect x="2265.907" y="1090.395" style="fill:#C4D9ED;" width="32.26" height="45.471"/>
					<rect x="1162.342" y="1169.407" style="fill:#C4D9ED;" width="32.261" height="45.471"/>
					<rect x="1222.67" y="1169.407" style="fill:#C4D9ED;" width="32.261" height="45.471"/>
					<rect x="1281.648" y="1169.407" style="fill:#C4D9ED;" width="32.261" height="45.471"/>
					<rect x="1337.568" y="1169.407" style="fill:#C4D9ED;" width="32.261" height="45.471"/>
					<rect x="1394.561" y="1169.407" style="fill:#C4D9ED;" width="32.261" height="45.471"/>
					<rect x="1452.208" y="1169.407" style="fill:#C4D9ED;" width="32.261" height="45.471"/>
					<rect x="1512.537" y="1169.407" style="fill:#C4D9ED;" width="32.26" height="45.471"/>
					<rect x="1571.514" y="1169.407" style="fill:#C4D9ED;" width="32.261" height="45.471"/>
					<rect x="1627.435" y="1169.407" style="fill:#C4D9ED;" width="32.26" height="45.471"/>
					<rect x="1684.428" y="1169.407" style="fill:#C4D9ED;" width="32.261" height="45.471"/>
					<rect x="1743.82" y="1169.407" style="fill:#C4D9ED;" width="32.261" height="45.471"/>
					<rect x="1804.149" y="1169.407" style="fill:#C4D9ED;" width="32.26" height="45.471"/>
					<rect x="1863.127" y="1169.407" style="fill:#C4D9ED;" width="32.26" height="45.471"/>
					<rect x="1919.047" y="1169.407" style="fill:#C4D9ED;" width="32.26" height="45.471"/>
					<rect x="1976.04" y="1169.407" style="fill:#C4D9ED;" width="32.262" height="45.471"/>
					<rect x="2033.687" y="1169.407" style="fill:#C4D9ED;" width="32.261" height="45.471"/>
					<rect x="2094.016" y="1169.407" style="fill:#C4D9ED;" width="32.26" height="45.471"/>
					<rect x="2208.914" y="1169.407" style="fill:#C4D9ED;" width="32.261" height="45.471"/>
					<rect x="2265.907" y="1169.407" style="fill:#C4D9ED;" width="32.26" height="45.471"/>
				</g>
				<polygon style="fill:#C4D9ED;" points="881.478,772.769 881.478,678.185 885.365,678.185 885.365,772.769 938.592,772.769 
					938.592,889.488 828.982,889.488 828.982,772.769 				"/>
				<polygon style="fill:#C4D9ED;" points="563.908,698.516 563.908,625.949 594.747,625.949 594.747,594.368 598.633,594.368 
					598.633,625.949 711.068,625.949 713.12,625.949 734.388,625.949 734.388,594.368 738.275,594.368 738.275,625.949 
					765.558,625.949 765.558,943.076 711.068,943.076 711.068,806.436 563.908,806.436 563.908,733.87 711.068,733.87 
					711.068,698.516 				"/>
				<rect x="2533.402" y="1002.442" style="fill:#D5E7F7;" width="7.605" height="97.317"/>
			</g>
			
				<rect x="789.813" y="1286.542" transform="matrix(-1 -1.224647e-16 1.224647e-16 -1 2318.48 3005.2769)" style="fill:#C4D9ED;" width="738.855" height="432.193"/>
			
				<rect x="1460.291" y="1330.846" transform="matrix(-1 -1.224647e-16 1.224647e-16 -1 2959.9758 2721.8391)" style="fill:#D5E7F7;" width="39.394" height="60.147"/>
			
				<rect x="1390.826" y="1330.846" transform="matrix(-1 -1.224647e-16 1.224647e-16 -1 2821.0449 2721.8391)" style="fill:#D5E7F7;" width="39.394" height="60.147"/>
			
				<rect x="1320.897" y="1330.846" transform="matrix(-1 -1.224647e-16 1.224647e-16 -1 2681.188 2721.8391)" style="fill:#D5E7F7;" width="39.394" height="60.147"/>
			
				<rect x="1251.432" y="1330.846" transform="matrix(-1 -1.224647e-16 1.224647e-16 -1 2542.2571 2721.8391)" style="fill:#D5E7F7;" width="39.394" height="60.147"/>
			
				<rect x="1179.888" y="1330.846" transform="matrix(-1 -1.224647e-16 1.224647e-16 -1 2399.1694 2721.8391)" style="fill:#D5E7F7;" width="39.394" height="60.147"/>
			
				<rect x="1110.422" y="1330.846" transform="matrix(-1 -1.224647e-16 1.224647e-16 -1 2260.2385 2721.8391)" style="fill:#D5E7F7;" width="39.394" height="60.147"/>
			
				<rect x="1040.494" y="1330.846" transform="matrix(-1 -1.224647e-16 1.224647e-16 -1 2120.3816 2721.8391)" style="fill:#D5E7F7;" width="39.394" height="60.147"/>
			
				<rect x="971.029" y="1330.846" transform="matrix(-1 -1.224647e-16 1.224647e-16 -1 1981.4507 2721.8391)" style="fill:#D5E7F7;" width="39.394" height="60.147"/>
			
				<rect x="898.174" y="1330.846" transform="matrix(-1 -1.224647e-16 1.224647e-16 -1 1835.7428 2721.8391)" style="fill:#D5E7F7;" width="39.394" height="60.147"/>
			
				<rect x="828.709" y="1330.846" transform="matrix(-1 -1.224647e-16 1.224647e-16 -1 1696.8118 2721.8391)" style="fill:#D5E7F7;" width="39.394" height="60.147"/>
			
				<rect x="1460.291" y="1419.796" transform="matrix(-1 -1.224647e-16 1.224647e-16 -1 2959.9758 2899.7385)" style="fill:#D5E7F7;" width="39.394" height="60.147"/>
			
				<rect x="1390.826" y="1419.796" transform="matrix(-1 -1.224647e-16 1.224647e-16 -1 2821.0449 2899.7385)" style="fill:#D5E7F7;" width="39.394" height="60.147"/>
			
				<rect x="1320.897" y="1419.796" transform="matrix(-1 -1.224647e-16 1.224647e-16 -1 2681.188 2899.7385)" style="fill:#D5E7F7;" width="39.394" height="60.147"/>
			
				<rect x="1251.432" y="1419.796" transform="matrix(-1 -1.224647e-16 1.224647e-16 -1 2542.2571 2899.7385)" style="fill:#D5E7F7;" width="39.394" height="60.147"/>
			
				<rect x="1179.888" y="1419.796" transform="matrix(-1 -1.224647e-16 1.224647e-16 -1 2399.1694 2899.7385)" style="fill:#D5E7F7;" width="39.394" height="60.147"/>
			
				<rect x="1110.422" y="1419.796" transform="matrix(-1 -1.224647e-16 1.224647e-16 -1 2260.2385 2899.7385)" style="fill:#D5E7F7;" width="39.394" height="60.147"/>
			
				<rect x="1040.494" y="1419.796" transform="matrix(-1 -1.224647e-16 1.224647e-16 -1 2120.3816 2899.7385)" style="fill:#D5E7F7;" width="39.394" height="60.147"/>
			
				<rect x="971.029" y="1419.796" transform="matrix(-1 -1.224647e-16 1.224647e-16 -1 1981.4507 2899.7385)" style="fill:#D5E7F7;" width="39.394" height="60.147"/>
			
				<rect x="898.174" y="1419.796" transform="matrix(-1 -1.224647e-16 1.224647e-16 -1 1835.7428 2899.7385)" style="fill:#D5E7F7;" width="39.394" height="60.147"/>
			
				<rect x="828.709" y="1419.796" transform="matrix(-1 -1.224647e-16 1.224647e-16 -1 1696.8118 2899.7385)" style="fill:#D5E7F7;" width="39.394" height="60.147"/>
			
				<rect x="1460.291" y="1515.346" transform="matrix(-1 -1.224647e-16 1.224647e-16 -1 2959.9758 3090.8379)" style="fill:#D5E7F7;" width="39.394" height="60.147"/>
			
				<rect x="1390.826" y="1515.346" transform="matrix(-1 -1.224647e-16 1.224647e-16 -1 2821.0449 3090.8379)" style="fill:#D5E7F7;" width="39.394" height="60.147"/>
			
				<rect x="1320.897" y="1515.346" transform="matrix(-1 -1.224647e-16 1.224647e-16 -1 2681.188 3090.8379)" style="fill:#D5E7F7;" width="39.394" height="60.147"/>
			
				<rect x="1251.432" y="1515.346" transform="matrix(-1 -1.224647e-16 1.224647e-16 -1 2542.2571 3090.8379)" style="fill:#D5E7F7;" width="39.394" height="60.147"/>
			
				<rect x="1179.888" y="1515.346" transform="matrix(-1 -1.224647e-16 1.224647e-16 -1 2399.1694 3090.8379)" style="fill:#D5E7F7;" width="39.394" height="60.147"/>
			
				<rect x="1110.422" y="1515.346" transform="matrix(-1 -1.224647e-16 1.224647e-16 -1 2260.2385 3090.8379)" style="fill:#D5E7F7;" width="39.394" height="60.147"/>
			
				<rect x="1040.494" y="1515.346" transform="matrix(-1 -1.224647e-16 1.224647e-16 -1 2120.3816 3090.8379)" style="fill:#D5E7F7;" width="39.394" height="60.147"/>
			
				<rect x="971.029" y="1515.346" transform="matrix(-1 -1.224647e-16 1.224647e-16 -1 1981.4507 3090.8379)" style="fill:#D5E7F7;" width="39.394" height="60.147"/>
			
				<rect x="898.174" y="1515.346" transform="matrix(-1 -1.224647e-16 1.224647e-16 -1 1835.7428 3090.8379)" style="fill:#D5E7F7;" width="39.394" height="60.147"/>
			
				<rect x="828.709" y="1515.346" transform="matrix(-1 -1.224647e-16 1.224647e-16 -1 1696.8118 3090.8379)" style="fill:#D5E7F7;" width="39.394" height="60.147"/>
			
				<rect x="1460.291" y="1604.295" transform="matrix(-1 -1.224647e-16 1.224647e-16 -1 2959.9758 3268.7373)" style="fill:#D5E7F7;" width="39.394" height="60.147"/>
			
				<rect x="1390.826" y="1604.295" transform="matrix(-1 -1.224647e-16 1.224647e-16 -1 2821.0449 3268.7373)" style="fill:#D5E7F7;" width="39.394" height="60.147"/>
			
				<rect x="1320.897" y="1604.295" transform="matrix(-1 -1.224647e-16 1.224647e-16 -1 2681.188 3268.7373)" style="fill:#D5E7F7;" width="39.394" height="60.147"/>
			
				<rect x="1251.432" y="1604.295" transform="matrix(-1 -1.224647e-16 1.224647e-16 -1 2542.2571 3268.7373)" style="fill:#D5E7F7;" width="39.394" height="60.147"/>
			
				<rect x="1179.888" y="1604.295" transform="matrix(-1 -1.224647e-16 1.224647e-16 -1 2399.1694 3268.7373)" style="fill:#D5E7F7;" width="39.394" height="60.147"/>
			
				<rect x="1110.422" y="1604.295" transform="matrix(-1 -1.224647e-16 1.224647e-16 -1 2260.2385 3268.7373)" style="fill:#D5E7F7;" width="39.394" height="60.147"/>
			
				<rect x="1040.494" y="1604.295" transform="matrix(-1 -1.224647e-16 1.224647e-16 -1 2120.3816 3268.7373)" style="fill:#D5E7F7;" width="39.394" height="60.147"/>
			
				<rect x="971.029" y="1604.295" transform="matrix(-1 -1.224647e-16 1.224647e-16 -1 1981.4507 3268.7373)" style="fill:#D5E7F7;" width="39.394" height="60.147"/>
			
				<rect x="898.174" y="1604.295" transform="matrix(-1 -1.224647e-16 1.224647e-16 -1 1835.7428 3268.7373)" style="fill:#D5E7F7;" width="39.394" height="60.147"/>
			
				<rect x="828.709" y="1604.295" transform="matrix(-1 -1.224647e-16 1.224647e-16 -1 1696.8118 3268.7373)" style="fill:#D5E7F7;" width="39.394" height="60.147"/>
			<polygon style="fill:#C4D9ED;" points="1044.347,1306.279 890.168,1306.279 890.168,1171.856 1044.347,1230.884 			"/>
			<polygon style="fill:#C4D9ED;" points="1804.231,1718.735 2157.065,1718.735 2157.065,1334.926 1804.231,1457.07 			"/>
			
				<rect x="1813.55" y="1469.777" transform="matrix(-1 -1.224647e-16 1.224647e-16 -1 3961.2969 2951.4141)" style="fill:#D5E7F7;" width="334.197" height="11.86"/>
			
				<rect x="1813.55" y="1507.898" transform="matrix(-1 -1.224647e-16 1.224647e-16 -1 3961.2969 3027.6565)" style="fill:#D5E7F7;" width="334.197" height="11.86"/>
			
				<rect x="1813.55" y="1546.02" transform="matrix(-1 -1.224647e-16 1.224647e-16 -1 3961.2969 3103.8992)" style="fill:#D5E7F7;" width="334.197" height="11.86"/>
			
				<rect x="1813.55" y="1584.141" transform="matrix(-1 -1.224647e-16 1.224647e-16 -1 3961.2969 3180.1416)" style="fill:#D5E7F7;" width="334.197" height="11.86"/>
			
				<rect x="1813.55" y="1622.262" transform="matrix(-1 -1.224647e-16 1.224647e-16 -1 3961.2969 3256.3843)" style="fill:#D5E7F7;" width="334.197" height="11.86"/>
			
				<rect x="1813.55" y="1660.383" transform="matrix(-1 -1.224647e-16 1.224647e-16 -1 3961.2969 3332.6267)" style="fill:#D5E7F7;" width="334.197" height="11.86"/>
			
				<rect x="860.518" y="1171.856" transform="matrix(-1 -1.224647e-16 1.224647e-16 -1 1750.6859 2458.3979)" style="fill:#C4D9ED;" width="29.65" height="114.686"/>
			
				<rect x="933.119" y="1219.024" transform="matrix(-1.836970e-16 1 -1 -1.836970e-16 2201.9131 296.2813)" style="fill:#D5E7F7;" width="39.394" height="60.147"/>
			<g>
				
					<rect x="2105.063" y="440.079" transform="matrix(-1 -1.224647e-16 1.224647e-16 -1 4230.5718 1053.6097)" style="fill:#C4D9ED;" width="20.446" height="173.452"/>
				
					<rect x="2064.4" y="440.079" transform="matrix(-1 -1.224647e-16 1.224647e-16 -1 4149.2466 1053.6097)" style="fill:#C4D9ED;" width="20.446" height="173.452"/>
				
					<rect x="2024.289" y="440.079" transform="matrix(-1 -1.224647e-16 1.224647e-16 -1 4069.0232 1053.6097)" style="fill:#C4D9ED;" width="20.446" height="173.452"/>
				
					<rect x="1982.772" y="440.079" transform="matrix(-1 -1.224647e-16 1.224647e-16 -1 3985.9907 1053.6097)" style="fill:#C4D9ED;" width="20.446" height="173.452"/>
			</g>
		</g>
	</g>
	<rect x="841.815" y="1458.833" style="fill:#1C2948;" width="1680.787" height="131.238"/>
	<g>
		<circle style="fill:#2D3A62;" cx="2337.756" cy="1611.27" r="109.301"/>
		<path style="fill:#98BDF4;" d="M2337.756,1543.55c-37.401,0-67.72,30.319-67.72,67.72s30.319,67.72,67.72,67.72
			c37.401,0,67.72-30.319,67.72-67.72S2375.157,1543.55,2337.756,1543.55z M2347.032,1550.971
			c14.748,2.25,27.746,9.792,37.03,20.615l-23.47,14.495c-3.826-3.471-8.45-6.073-13.56-7.52V1550.971z M2328.479,1550.971v27.59
			c-5.11,1.447-9.734,4.049-13.56,7.52l-23.47-14.495C2300.733,1560.764,2313.732,1553.221,2328.479,1550.971z M2281.513,1634.922
			c-3.063-7.273-4.757-15.264-4.757-23.651c0-8.498,1.742-16.588,4.881-23.938l23.459,14.489c-0.867,3.001-1.341,6.169-1.341,9.45
			c0,3.168,0.442,6.231,1.253,9.14L2281.513,1634.922z M2328.479,1671.569c-14.856-2.267-27.938-9.901-37.235-20.852l23.442-14.479
			c3.872,3.579,8.577,6.263,13.792,7.74V1671.569z M2322.381,1611.27c0-8.491,6.884-15.375,15.375-15.375
			s15.375,6.884,15.375,15.375s-6.884,15.375-15.375,15.375S2322.381,1619.761,2322.381,1611.27z M2347.032,1671.569v-27.59
			c5.215-1.477,9.921-4.161,13.792-7.74l23.442,14.479C2374.971,1661.668,2361.888,1669.302,2347.032,1671.569z M2370.503,1620.41
			c0.811-2.909,1.253-5.972,1.253-9.14c0-3.28-0.474-6.448-1.341-9.45l23.459-14.489c3.139,7.351,4.882,15.44,4.882,23.938
			c0,8.387-1.695,16.378-4.757,23.651L2370.503,1620.41z"/>
	</g>
	<g>
		<g>
			<g>
				<circle style="fill:#2D3A62;" cx="977.756" cy="1611.27" r="109.301"/>
			</g>
		</g>
		<path style="fill:#98BDF4;" d="M977.756,1543.55c-37.401,0-67.72,30.319-67.72,67.72s30.319,67.72,67.72,67.72
			c37.401,0,67.72-30.319,67.72-67.72S1015.157,1543.55,977.756,1543.55z M987.032,1550.971c14.748,2.25,27.747,9.792,37.03,20.615
			l-23.47,14.495c-3.826-3.471-8.45-6.073-13.56-7.52V1550.971z M968.479,1550.971v27.59c-5.11,1.447-9.734,4.049-13.56,7.52
			l-23.47-14.495C940.733,1560.764,953.732,1553.221,968.479,1550.971z M921.513,1634.921c-3.063-7.273-4.757-15.264-4.757-23.651
			c0-8.498,1.742-16.588,4.881-23.938l23.459,14.489c-0.867,3.001-1.341,6.169-1.341,9.45c0,3.168,0.442,6.231,1.253,9.14
			L921.513,1634.921z M968.479,1671.569c-14.856-2.267-27.938-9.901-37.235-20.852l23.442-14.479
			c3.872,3.579,8.577,6.263,13.792,7.74V1671.569z M962.381,1611.27c0-8.491,6.884-15.375,15.375-15.375s15.375,6.884,15.375,15.375
			s-6.884,15.375-15.375,15.375S962.381,1619.761,962.381,1611.27z M987.032,1671.569v-27.59c5.215-1.477,9.921-4.161,13.792-7.74
			l23.442,14.479C1014.971,1661.667,1001.888,1669.302,987.032,1671.569z M1010.503,1620.41c0.81-2.909,1.253-5.972,1.253-9.14
			c0-3.28-0.474-6.448-1.341-9.45l23.46-14.489c3.139,7.351,4.881,15.44,4.881,23.938c0,8.387-1.695,16.378-4.757,23.651
			L1010.503,1620.41z"/>
	</g>
	<g>
		<g>
			<path style="fill:#A8D29F;" d="M1550.427,918.783h-956v-29.461c0-13.284,10.769-24.052,24.052-24.052h881.942
				c7.845,0,15.198,3.826,19.699,10.252L1550.427,918.783z"/>
			<polygon style="fill:#82B378;" points="594.427,901.27 594.427,918.783 1550.427,918.783 1538.158,901.27 			"/>
			<path style="fill:#A8D29F;" d="M2547.727,918.783H535.087c-34.124,0-61.787,27.663-61.787,61.787v562.537
				c0,15.162,10.818,28.166,25.727,30.926l169.4,31.361h188.192c0-66.274,53.726-120,120-120c66.274,0,120.001,53.726,120.001,120
				h1119.999c0-66.274,53.726-120,120-120c66.274,0,120,53.726,120,120h122.275c16.91,0,30.619-13.709,30.619-30.619V980.57
				C2609.514,946.446,2581.851,918.783,2547.727,918.783z"/>
			<g>
				<path style="fill:#82B378;" d="M2435.69,1537.673c13.201,19.275,20.929,42.594,20.929,67.72h122.275
					c16.911,0,30.619-13.709,30.619-30.619v0c0-20.49-16.611-37.101-37.101-37.101H2435.69z"/>
				<path style="fill:#82B378;" d="M473.3,1537.673v5.434c0,15.162,10.818,28.166,25.727,30.926l169.4,31.361h188.192
					c0-25.126,7.728-48.445,20.929-67.72H473.3z"/>
				<path style="fill:#82B378;" d="M1075.691,1537.673c13.201,19.275,20.929,42.594,20.929,67.72h1119.999
					c0-25.126,7.728-48.445,20.929-67.72H1075.691z"/>
			</g>
			<rect x="460.427" y="1372.603" style="fill:#B64C41;" width="27.333" height="144.667"/>
			<rect x="460.427" y="1333.374" style="fill:#F1A34F;" width="27.333" height="27.333"/>
			<rect x="2595.427" y="1365.27" style="fill:#B64C41;" width="14.087" height="130.822"/>
			<path style="fill:#163560;" d="M1207.593,1303.332h579.33c11.046,0,20-8.954,20-20V1021.27c0-11.046-8.954-20-20-20h-579.33
				c-11.046,0-20,8.954-20,20v262.062C1187.593,1294.377,1196.547,1303.332,1207.593,1303.332z"/>
			<path style="fill:#163560;" d="M2171.137,1303.332h213.203c11.046,0,20-8.954,20-20V1021.27c0-11.046-8.954-20-20-20h-213.203
				c-11.046,0-20,8.954-20,20v262.062C2151.137,1294.377,2160.091,1303.332,2171.137,1303.332z"/>
			<path style="fill:#163560;" d="M2557.649,1303.332h51.865V1021.27c0-11.046-8.954-20-20-20h-145.26c-11.046,0-20,8.954-20,20
				v148.666C2424.253,1243.609,2483.977,1303.332,2557.649,1303.332z"/>
			<path style="fill:#98BDF4;" d="M1207.593,1303.332h579.33c11.046,0,20-8.954,20-20V1021.27c0-11.046-8.954-20-20-20h-579.33
				c-11.046,0-20,8.954-20,20v262.062C1187.593,1294.377,1196.547,1303.332,1207.593,1303.332z"/>
			<path style="fill:#98BDF4;" d="M2171.137,1303.332h213.203c11.046,0,20-8.954,20-20V1021.27c0-11.046-8.954-20-20-20h-213.203
				c-11.046,0-20,8.954-20,20v262.062C2151.137,1294.377,2160.091,1303.332,2171.137,1303.332z"/>
			<path style="fill:#98BDF4;" d="M2557.649,1303.332h51.865V1021.27c0-11.046-8.954-20-20-20h-145.26c-11.046,0-20,8.954-20,20
				v148.666C2424.253,1243.609,2483.977,1303.332,2557.649,1303.332z"/>
			<path style="fill:#163560;" d="M545.988,1303.332h579.331c11.046,0,20-8.954,20-20V1021.27c0-11.046-8.954-20-20-20H545.988
				c-11.046,0-20,8.954-20,20v262.062C525.988,1294.377,534.942,1303.332,545.988,1303.332z"/>
			<path style="fill:#98BDF4;" d="M545.988,1303.332h579.331c11.046,0,20-8.954,20-20V1021.27c0-11.046-8.954-20-20-20H545.988
				c-11.046,0-20,8.954-20,20v262.062C525.988,1294.377,534.942,1303.332,545.988,1303.332z"/>
			<path style="fill:#98BDF4;" d="M2114.427,1001.27h-149.646h-17.709h-100.645c-11.046,0-20,8.954-20,20v584.123h120.645h17.709
				h169.646V1021.27C2134.427,1010.224,2125.473,1001.27,2114.427,1001.27z"/>
			<g>
				<defs>
					<path id="SVGID_1_" d="M1207.593,1303.332h579.33c11.046,0,20-8.954,20-20V1021.27c0-11.046-8.954-20-20-20h-579.33
						c-11.046,0-20,8.954-20,20v262.062C1187.593,1294.377,1196.547,1303.332,1207.593,1303.332z"/>
				</defs>
				<clipPath id="SVGID_00000070819703702664061290000003532794009266671500_">
					<use xlink:href="#SVGID_1_"  style="overflow:visible;"/>
				</clipPath>
				<polygon style="clip-path:url(#SVGID_00000070819703702664061290000003532794009266671500_);fill:#D5E7F7;" points="
					1200.931,1468.789 1115.436,1468.789 1491.917,805.434 1577.412,805.434 				"/>
				<polygon style="clip-path:url(#SVGID_00000070819703702664061290000003532794009266671500_);fill:#D5E7F7;" points="
					1340.38,1483.979 1254.884,1483.979 1631.365,820.623 1716.861,820.623 				"/>
				<polygon style="clip-path:url(#SVGID_00000070819703702664061290000003532794009266671500_);fill:#D5E7F7;" points="
					1591.88,1497.479 1506.384,1497.479 1882.865,834.123 1968.361,834.123 				"/>
				<polygon style="clip-path:url(#SVGID_00000070819703702664061290000003532794009266671500_);fill:#D5E7F7;" points="
					1393.427,1496.092 1370.884,1496.092 1747.365,832.736 1769.908,832.736 				"/>
			</g>
			<g>
				<defs>
					<path id="SVGID_00000047766599107816958840000000475381593151585669_" d="M2171.137,1303.332h213.203c11.046,0,20-8.954,20-20
						V1021.27c0-11.046-8.954-20-20-20h-213.203c-11.046,0-20,8.954-20,20v262.062
						C2151.137,1294.377,2160.091,1303.332,2171.137,1303.332z"/>
				</defs>
				<clipPath id="SVGID_00000104682914658380975630000010689661878620877486_">
					<use xlink:href="#SVGID_00000047766599107816958840000000475381593151585669_"  style="overflow:visible;"/>
				</clipPath>
				<polygon style="clip-path:url(#SVGID_00000104682914658380975630000010689661878620877486_);fill:#D5E7F7;" points="
					2179.985,1434.621 2094.49,1434.621 2470.971,771.266 2556.467,771.266 				"/>
				<polygon style="clip-path:url(#SVGID_00000104682914658380975630000010689661878620877486_);fill:#D5E7F7;" points="
					2233.033,1446.734 2210.49,1446.734 2586.971,783.379 2609.514,783.379 				"/>
			</g>
			<g>
				<defs>
					<path id="SVGID_00000100384144287325139890000007402573641204381833_" d="M2557.649,1303.332h51.865V1021.27
						c0-11.046-8.954-20-20-20h-145.26c-11.046,0-20,8.954-20,20v148.666C2424.253,1243.609,2483.977,1303.332,2557.649,1303.332z"
						/>
				</defs>
				<clipPath id="SVGID_00000127734169885461803300000004045173495711682459_">
					<use xlink:href="#SVGID_00000100384144287325139890000007402573641204381833_"  style="overflow:visible;"/>
				</clipPath>
				<polygon style="clip-path:url(#SVGID_00000127734169885461803300000004045173495711682459_);fill:#D5E7F7;" points="
					2384.45,1422.508 2341.702,1422.508 2718.184,759.152 2760.931,759.152 				"/>
				<polygon style="clip-path:url(#SVGID_00000127734169885461803300000004045173495711682459_);fill:#D5E7F7;" points="
					2437.497,1434.621 2414.955,1434.621 2791.436,771.266 2813.979,771.266 				"/>
			</g>
			<g>
				<defs>
					<path id="SVGID_00000078034222794760764700000004948429556111783318_" d="M545.988,1303.332h579.331c11.046,0,20-8.954,20-20
						V1021.27c0-11.046-8.954-20-20-20H545.988c-11.046,0-20,8.954-20,20v262.062
						C525.988,1294.377,534.942,1303.332,545.988,1303.332z"/>
				</defs>
				<clipPath id="SVGID_00000025433472851309885170000011361680747784402856_">
					<use xlink:href="#SVGID_00000078034222794760764700000004948429556111783318_"  style="overflow:visible;"/>
				</clipPath>
				<polygon style="clip-path:url(#SVGID_00000025433472851309885170000011361680747784402856_);fill:#D5E7F7;" points="
					529.931,1461.789 444.436,1461.789 820.917,798.434 906.412,798.434 				"/>
				<polygon style="clip-path:url(#SVGID_00000025433472851309885170000011361680747784402856_);fill:#D5E7F7;" points="
					824.931,1461.789 739.436,1461.789 1115.917,798.434 1201.412,798.434 				"/>
				<polygon style="clip-path:url(#SVGID_00000025433472851309885170000011361680747784402856_);fill:#D5E7F7;" points="
					578.946,1461.789 556.436,1461.789 932.917,798.434 955.427,798.434 				"/>
			</g>
			<g>
				<defs>
					<path id="SVGID_00000067959060414265267840000004492339790078311100_" d="M2114.427,1001.27h-149.646h-17.709h-100.645
						c-11.046,0-20,8.954-20,20v584.123h120.645h17.709h169.646V1021.27C2134.427,1010.224,2125.473,1001.27,2114.427,1001.27z"/>
				</defs>
				<clipPath id="SVGID_00000170252362358814984400000000531331136798215585_">
					<use xlink:href="#SVGID_00000067959060414265267840000004492339790078311100_"  style="overflow:visible;"/>
				</clipPath>
				<polygon style="clip-path:url(#SVGID_00000170252362358814984400000000531331136798215585_);fill:#D5E7F7;" points="
					1717.056,1624.033 1631.56,1624.033 2008.041,960.678 2093.537,960.678 				"/>
				<polygon style="clip-path:url(#SVGID_00000170252362358814984400000000531331136798215585_);fill:#D5E7F7;" points="
					1770.103,1636.147 1747.56,1636.147 2124.041,972.791 2146.584,972.791 				"/>
				<polygon style="clip-path:url(#SVGID_00000170252362358814984400000000531331136798215585_);fill:#D5E7F7;" points="
					1921.521,1611.92 1878.773,1611.92 2255.254,948.565 2298.002,948.565 				"/>
			</g>
			<rect x="1971.915" y="1001.27" style="fill:#163560;" width="16.499" height="604.123"/>
			<path style="fill:#163560;" d="M1125.318,1308.332h-579.33c-13.785,0-25-11.215-25-25V1021.27c0-13.785,11.215-25,25-25h579.33
				c13.785,0,25,11.215,25,25v262.062C1150.318,1297.117,1139.103,1308.332,1125.318,1308.332z M545.988,1006.27
				c-8.271,0-15,6.728-15,15v262.062c0,8.271,6.729,15,15,15h579.33c8.271,0,15-6.729,15-15V1021.27c0-8.272-6.729-15-15-15H545.988
				z"/>
			<path style="fill:#163560;" d="M1786.923,1308.332h-579.33c-13.785,0-25-11.215-25-25V1021.27c0-13.785,11.215-25,25-25h579.33
				c13.785,0,25,11.215,25,25v262.062C1811.923,1297.117,1800.708,1308.332,1786.923,1308.332z M1207.593,1006.27
				c-8.271,0-15,6.728-15,15v262.062c0,8.271,6.729,15,15,15h579.33c8.271,0,15-6.729,15-15V1021.27c0-8.272-6.729-15-15-15
				H1207.593z"/>
			<path style="fill:#163560;" d="M2139.427,1610.393h-318V1021.27c0-13.785,11.215-25,25-25h268c13.785,0,25,11.215,25,25V1610.393
				z M1831.427,1600.393h298V1021.27c0-8.272-6.729-15-15-15h-268c-8.272,0-15,6.728-15,15V1600.393z"/>
			<path style="fill:#163560;" d="M2384.339,1308.332h-213.202c-13.785,0-25-11.215-25-25V1021.27c0-13.785,11.215-25,25-25h213.202
				c13.785,0,25,11.215,25,25v262.062C2409.339,1297.117,2398.125,1308.332,2384.339,1308.332z M2171.137,1006.27
				c-8.271,0-15,6.728-15,15v262.062c0,8.271,6.729,15,15,15h213.202c8.271,0,15-6.729,15-15V1021.27c0-8.272-6.729-15-15-15
				H2171.137z"/>
			<path style="fill:#163560;" d="M2603.773,1308.332h-46.124c-76.312,0-138.396-62.084-138.396-138.396V1021.27
				c0-13.785,11.215-25,25-25h145.261c13.785,0,25,11.215,25,25v276.32C2614.514,1303.513,2609.696,1308.332,2603.773,1308.332z
				 M2444.253,1006.27c-8.271,0-15,6.728-15,15v148.666c0,70.798,57.598,128.396,128.396,128.396h46.124
				c0.409,0,0.741-0.333,0.741-0.741v-276.32c0-8.272-6.729-15-15-15H2444.253z"/>
			<rect x="1791.427" y="1605.393" style="fill:#A8D29F;" width="377.5" height="17.877"/>
			<rect x="1774.927" y="1623.27" style="fill:#82B378;" width="410.5" height="17.877"/>
			<path style="fill:#A8D29F;" d="M2657.094,1189.937L2657.094,1189.937c-11.782,0-21.333-9.551-21.333-21.333V993.937
				c0-11.782,9.551-21.333,21.333-21.333l0,0c11.782,0,21.333,9.551,21.333,21.333v174.667
				C2678.427,1180.385,2668.875,1189.937,2657.094,1189.937z"/>
			<path style="fill:#82B378;" d="M2648.01,986.52h-200.667c-7.686,0-13.917-6.231-13.917-13.917l0,0
				c0-7.686,6.231-13.917,13.917-13.917h200.667c7.686,0,13.917,6.231,13.917,13.917l0,0
				C2661.927,980.289,2655.696,986.52,2648.01,986.52z"/>
		</g>
		<g>
			<path style="fill:#D9935C;" d="M1728.563,1285.921c1.035-3.193,1.817-5.511,2.211-6.659c0.178-0.534,0.275-0.815,0.275-0.815
				s0.318,0.302,0.836,0.955c3.213,4.028,14.251,21.347,5.958,61.438c-1.218,5.898-2.857,12.294-4.998,19.206
				c0,0,30.557-5.392,39.184-11.14c0.36-0.9,4.853-14.201,8.268-15.998c3.416-1.797,9.706-3.775,11.144-3.056
				c1.438,0.719,4.135,10.784,0,15.996c-4.133,5.213-14.736,10.246-14.736,10.246s-34.153,27.322-57.879,26.599
				C1698.998,1382.094,1720.847,1309.7,1728.563,1285.921z"/>
			<path style="fill:#FFFFFF;" d="M1582.316,1462.992c1.183-3.275,1.685-8.088,1.685-8.088c17.254,7.549,36.127,4.314,36.127,4.314
				c1.618,6.65,0.202,15.906,0.202,15.906c-19.411,5.213-40.935-6.201-40.935-6.201S1581.439,1465.419,1582.316,1462.992z"/>
			<path style="fill:#466AA5;" d="M1608.826,1411.453c0.776,1.889,4.158,3.567,9.025,4.774c0.455,0.109,0.919,0.219,1.391,0.329
				c11.032,2.403,28.483,2.539,41.346-2.226c14.388-5.331,24.831-81.391,29.267-120.384c0.068-0.599,0.135-1.181,0.194-1.763
				c1.425-12.618,2.175-20.926,2.175-20.926s-8.265-12.938-40.265-8.628c-31.992,4.318-35.223,15.098-38.098,34.513
				C1610.986,1316.55,1606.313,1405.338,1608.826,1411.453z"/>
			<path style="fill:#2B478B;" d="M1619.243,1416.556c11.032,2.403,28.483,2.539,41.346-2.226
				c14.388-5.331,24.831-81.391,29.267-120.384c0.068-0.599,0.135-1.181,0.194-1.763c-3.265-11.302-5.728-18.522-5.728-18.522
				s-40.173-4.85-47.991,7.279C1629.499,1291.542,1621.225,1391.531,1619.243,1416.556z"/>
			<path style="fill:#D9935C;" d="M1600.967,1454.187c2.367-1.496,4.655-6.047,5.5-7.864c7.304-18.145,15.729-53.443,18.514-59.937
				c1.013-2.362,2.954-13.507,5.5-27.866c4.567-25.764,11.064-61.88,17.573-76.191c0.782-1.715,3.019-3.176,5.953-4.4
				c7.78-3.254,20.406-4.842,23.367-5.182c3.147-2.521,7.49-13.352,7.431-29.848l1.409,0.278l23.7,4.693
				c0,0-0.539,7.459-0.555,14.485c-0.016,5.856,0.338,11.405,1.664,12.105c1.707,0.154,2.713,0.255,2.713,0.255
				s19.761,27.445,21.423,52.969c1.662,25.525-15.825,36.613,0.132,87.62c16.29,52.094-94.414,19.243-88.336,5.608
				c11.003-24.677,16.267-31.655,16.451-39.419c0.13-5.455-2.248-11.299-6.904-23.927c-0.412,1.519-0.82,3.025-1.218,4.507
				c-2.636,9.792-4.896,18.532-5.818,22.9c-2.826,13.415-33.9,64.975-33.9,64.975l-0.009-0.002l0.006,0.003
				c0,0-0.941,0.628-2.04,3.767s-9.888,19.775-13.655,19.775c-3.767,0-4.552-5.65-5.336-9.26
				C1593.747,1460.622,1597.985,1456.07,1600.967,1454.187z"/>
			<path style="fill:#233862;" d="M1654.016,1176.858c5.258-3.217,13.655,0.628,13.655,0.628c-2.904-4.08-13.498-2.746-13.498-2.746
				c21.156-4.501,25.526,9.061,25.871,10.264c15.306-13.814,39.813,15.632,39.813,15.632l-35.166,46.614c0,0-3.207-7.416-7.445-5.1
				c-6.607,3.609-19.387-10.997-15.303-30.213c0.441-2.077,0.973-3.973,1.562-5.716c-1.373,0.601-2.93,1.086-4.387,1.086
				c-3.845,0-9.652-9.81-10.437-13.105C1647.895,1190.905,1648.758,1180.075,1654.016,1176.858z"/>
			<path style="fill:#CB7D45;" d="M1709.913,1247.871c0,0-0.54,7.459-0.555,14.485c-13.263-0.374-20.272-12.472-23.145-19.178
				L1709.913,1247.871z"/>
			<path style="fill:#233862;" d="M1683.765,1240.598c0,0-6.95-10.982-8.618-20.372c-1.191-6.704,2.224-31.554,27.195-27.975
				c0,0,7.252,0.715,14.07,5.319c5.421,3.662,13.246,11.567,4.497,33.251l-2.272,7.325L1683.765,1240.598z"/>
			<path style="fill:#D9935C;" d="M1714.343,1254.524c0,0-31.378,0.517-31.401-19.028c-0.021-19.546-4.086-32.643,15.947-33.8
				c20.034-1.156,23.935,6.298,25.529,12.819C1726.012,1221.038,1722.504,1253.886,1714.343,1254.524z"/>
			<path style="fill:#AA413E;" d="M1674.739,1657.707c7.894,31.404,19.778,55.48,19.778,55.48l10.348-0.717
				c0,0-5.074-24.14-4.783-56.757c0.205-22.803,3.025-49.753,12.035-75.484c30.962-88.426,25.958-152.781,25.958-152.781
				l-58.224,6.811l-2.712,0.318c-0.242,26.74-0.932,63.044-1.537,91.434c-0.534,25.531-1.003,44.657-1.003,44.657
				C1663.404,1594.776,1667.47,1628.805,1674.739,1657.707z"/>
			<path style="fill:#CB7D45;" d="M1654.644,1352.484c5.881,16.244,8.909,22.869,8.762,29.009
				c18.745-29.024,52.603-33.402,52.603-33.402l-64.294-7.35C1652.303,1344.72,1653.259,1348.656,1654.644,1352.484z"/>
			<path style="fill:#B64C41;" d="M1641.335,1652.692c3.348,35.728,18.088,58.831,18.088,58.831l4.943,3.595
				c0,0,4.678-25.172,7.989-55.121c3.155-28.464,7.479-58.585,12.37-67.779c19.417-36.461,25.262-174.107,25.262-174.107
				l-59.033-2.927c-5.936,9.98-8.525,26.351-9.139,44.965c-1.553,46.976,9.49,108.231,11.14,117.09c0,0.005,0,0.011,0.006,0.021
				c0.129,0.685-0.071,1.359-0.389,1.979C1640.827,1602.492,1639.129,1629.091,1641.335,1652.692z"/>
			<path style="fill:#233862;" d="M1691.405,1227.539c-13.184,3.39-18.904-0.143-18.904-0.143s0.982-13.4,12.212-22.058
				c16.289-12.558,27.508-5.544,28.201-4.51c2.054-1.768,5.72-3.061,10.572,2.82c7.274,8.816,0.802,24.403,0.802,24.403
				c-2.986,0.348-3.69-9.898-5.254-14.875c-1.152-3.665-4.929-7.4-6.842-9.119c-0.615,2.263-6.932,24.21-22.703,31.5
				c0,0,7.262-6.443,12.599-15.388C1699.028,1223.641,1695.432,1226.503,1691.405,1227.539z"/>
			<path style="fill:#F1A34F;" d="M1639.555,1438.728c-0.103,1.989,0.006,3.58,0.366,4.718c1.257,3.952,5.571,5.753,15.999,4.674
				c6.373-0.663,9.215-11.344,10.482-20.458c3.828,13.038,9.188,20.355,16.117,21.892c10.11,2.249,61.109,8.449,64.446-15.794
				c3.672-26.664-7.322-73.877-7.926-99.333c1.499-9.027,2.011-16.861,1.849-23.591c-0.426-18.134-5.748-28.298-9.84-32.391
				c-1.16-0.89-2.319-1.445-6.972-2.243c-2.378-0.404-5.672-0.873-10.341-1.488c0,0-1.906-0.214-1.862-0.144
				c0.863,1.542,12.414,19.032,11.513,23.53c-0.943,4.707-41.907,0.47-44.732-2.119c-2.826-2.588-7.296-22.42-7.296-22.42
				s-14.505,1.586-21.601,6.746c0,0,0.027,0.032,0.076,0.091c-0.857,0.614-1.499,1.267-1.866,1.963
				c-7.571,14.413-15.131,50.788-20.448,76.735c12.887,7.102,24.146,4.988,27.64,4.049
				C1650.593,1393.029,1640.234,1425.113,1639.555,1438.728z"/>
			<path style="fill:#466AA5;" d="M1713.734,1274.715c0,0,0.021,0.038,0.065,0.108c1.391,2.2,23.153,36.984,25.24,59.605
				c1.499-9.027,2.011-16.861,1.849-23.591c-2.798-8.546-9.593-27.533-16.813-34.633
				C1723.171,1275.308,1713.734,1274.715,1713.734,1274.715z"/>
			<g>
				<path style="fill:#F1A34F;" d="M1765.507,1350.96l9.134-27.432c0.16-0.477,0.675-0.736,1.152-0.577l14.387,4.79
					c0.477,0.159,0.735,0.675,0.577,1.152l-9.135,27.432c-0.159,0.477-0.675,0.736-1.152,0.577l-14.387-4.791
					C1765.607,1351.954,1765.349,1351.438,1765.507,1350.96z"/>
				<path style="fill:#D86713;" d="M1768.801,1351.315l8.688-26.095c0.283-0.847,1.198-1.305,2.044-1.023l13.048,4.346
					c0.848,0.282,1.305,1.197,1.023,2.043l-8.689,26.095c-0.283,0.847-1.197,1.305-2.044,1.023l-13.049-4.346
					C1768.976,1353.076,1768.518,1352.161,1768.801,1351.315z"/>
			</g>
			<path style="fill:#D9935C;" d="M1641.335,1652.692c3.348,35.728,18.088,58.831,18.088,58.831l5.033,4.584
				c0,0,4.589-26.16,7.899-56.109C1668.867,1660.252,1653.488,1660.813,1641.335,1652.692z"/>
			<path style="fill:#D9935C;" d="M1674.739,1657.707c7.894,31.404,19.778,55.48,19.778,55.48l10.348-0.717
				c0,0-5.074-24.14-4.783-56.757C1696.572,1657.48,1689.324,1659.276,1674.739,1657.707z"/>
			<g>
				<path style="fill:#233862;" d="M1688.558,1721.863h6.606c2.213-0.348,3.846-0.988,6.117-1.286
					c3.446-0.451,5.033,0.961,5.349,1.286c0.042,0.042,0.061,0.066,0.061,0.066h28.062c0.707-1.007,0.029-3.343-0.636-5.061
					c-0.447-1.168-1.422-2.053-2.627-2.401c-2.976-0.862-8.843-1.629-14.215-6.493c-3.023-2.731-14.597-10.044-14.597-10.044
					l-0.061-0.014c-0.254,0.005-1.464,0.376-6.728,4.822c-2.722,2.293-7.36-3.24-7.36-3.24s-0.871,0.72-1.521,2.063
					c-0.522,1.059-0.904,2.514-0.603,4.308c0.419,2.529-0.932,7.228-2.01,10.406c-0.654,1.926-1.205,3.291-1.205,3.291
					S1682.875,1721.152,1688.558,1721.863z"/>
				<path style="fill:#466AA5;" d="M1687.009,1701.561c1.577,1.111,4.906,3.3,7.115,3.588c2.98,0.391,8.555-7.219,8.555-7.219
					l-0.061-0.014c-0.254,0.005-1.464,0.376-6.728,4.822c-2.722,2.293-7.36-3.24-7.36-3.24S1687.659,1700.218,1687.009,1701.561z"/>
				<path style="fill:#466AA5;" d="M1688.558,1721.863h6.606c2.213-0.348,3.846-0.988,6.117-1.286
					c3.446-0.451,5.033,0.961,5.349,1.286c0.042,0.042,0.061,0.066,0.061,0.066h28.062c0.707-1.007,0.029-3.343-0.636-5.061
					c-0.852-0.758-1.092,3.291-1.563,3.936c-0.471,0.645-22.893,0.236-24.188-0.706c-1.295-0.942-5.179-2.59-10.594-1.295
					c-4.713,1.125-11.658-1.761-13.377-2.529c-0.654,1.926-1.205,3.291-1.205,3.291S1682.875,1721.152,1688.558,1721.863z"/>
			</g>
			<g>
				<path style="fill:#233862;" d="M1653.306,1721.863h6.606c2.212-0.348,3.847-0.988,6.117-1.286
					c3.446-0.451,5.033,0.961,5.348,1.286c0.043,0.042,0.062,0.066,0.062,0.066h28.062c0.706-1.007,0.028-3.343-0.636-5.061
					c-0.447-1.168-1.422-2.053-2.627-2.401c-2.975-0.862-8.842-1.629-14.215-6.493c-3.023-2.731-14.596-10.044-14.596-10.044
					l-0.061-0.014c-0.255,0.005-1.464,0.376-6.729,4.822c-2.722,2.293-7.359-3.24-7.359-3.24s-0.871,0.72-1.521,2.063
					c-0.522,1.059-0.904,2.514-0.602,4.308c0.419,2.529-0.932,7.228-2.011,10.406c-0.654,1.926-1.205,3.291-1.205,3.291
					S1647.623,1721.152,1653.306,1721.863z"/>
				<path style="fill:#466AA5;" d="M1651.756,1701.561c1.578,1.111,4.907,3.3,7.115,3.588c2.981,0.391,8.555-7.219,8.555-7.219
					l-0.061-0.014c-0.255,0.005-1.464,0.376-6.729,4.822c-2.722,2.293-7.359-3.24-7.359-3.24S1652.407,1700.218,1651.756,1701.561z"
					/>
				<path style="fill:#466AA5;" d="M1653.306,1721.863h6.606c2.212-0.348,3.847-0.988,6.117-1.286
					c3.446-0.451,5.033,0.961,5.348,1.286c0.043,0.042,0.062,0.066,0.062,0.066h28.062c0.706-1.007,0.028-3.343-0.636-5.061
					c-0.852-0.758-1.092,3.291-1.563,3.936c-0.471,0.645-22.892,0.236-24.187-0.706c-1.296-0.942-5.18-2.59-10.595-1.295
					c-4.713,1.125-11.657-1.761-13.376-2.529c-0.654,1.926-1.205,3.291-1.205,3.291S1647.623,1721.152,1653.306,1721.863z"/>
			</g>
			<path style="opacity:0.4;fill:#D86713;" d="M1639.555,1438.728c7.004-2.341,15.993-8.563,26.788-22.512
				c28.578-36.936,2.427-80.343-1.079-81.152c-3.504-0.809-10.105,28.082-10.105,28.082
				C1650.593,1393.029,1640.234,1425.113,1639.555,1438.728z"/>
			<path style="fill:#466AA5;" d="M1655.559,1270.898c0,0,28.758,19.592,30.915,61.111c2.157,41.519-35.228,49.967-35.228,49.967
				l2.427-13.121c0,0,30.285-10.964,22.377-44.036c-7.909-33.072-31.634-51.046-31.634-51.046L1655.559,1270.898z"/>
			<path style="fill:#D9935C;" d="M1792.249,1334.417c0,0-2.696-5.571-7.639-3.325c-4.942,2.247-2.786,10.695,0.091,13.661
				c2.875,2.965,3.684,4.313,3.684,4.313L1792.249,1334.417z"/>
		</g>
		<g>
			<path style="fill:#CB8757;" d="M779.572,1392.211c0,0,4.756,5.427,1.977,8.807c-2.779,3.38-7.729,6.29-12.402,3.055
				c-4.673-3.235-5.931-15.277-3.235-15.277C768.608,1388.797,779.572,1392.211,779.572,1392.211z"/>
			<path style="fill:#AA413E;" d="M770.405,1340.986c0,0,13.66,44.575,10.785,51.046c-2.876,6.47-12.182,5.285-17.415-2.389
				C758.542,1381.966,770.405,1340.986,770.405,1340.986z"/>
			<path style="fill:#B64C41;" d="M734.743,1241.509c0,0,21.059,3.812,28.87,11.622c7.81,7.81,26.239,30.85,14.645,107.668
				c0,0-0.931,23.152-26.964,25.383C725.26,1388.413,734.743,1241.509,734.743,1241.509z"/>
			<path style="fill:#D9935C;" d="M746.421,1239.517c-0.404-4.022-0.254-7.565-0.059-9.835v-0.006
				c0.14-1.65,0.307-2.626,0.307-2.626l-0.307-0.097l-25.295-7.706l-0.625-0.188c-0.372,8.233-0.852,14.332-1.359,18.862
				c-0.572,5.138-1.181,8.25-1.698,10.126h30.756C747.214,1245.152,746.691,1242.224,746.421,1239.517z"/>
			<path style="fill:#2B478B;" d="M756.253,1186.815c0,0-2.905-41.429-56.704-25.742c-12.207,3.559-10.62,40.416,18.944,54.448
				L756.253,1186.815z"/>
			<path style="fill:#D9935C;" d="M686.346,1432.546c3.622,25.207,27.917,90.728,27.21,113.374
				c-0.559,17.846-0.265,59.073,2.09,86.459c0.648,7.45,1.414,13.84,2.385,18.494c2.091,10.1,4.771,21.732,6.214,29.065
				c3.21,16.462,1.531,26.062,4.152,34.896c2.886,9.658,36.015,7.891,26.032,2.031c-3.563-2.09-8.746-6.537-11.308-12.279
				c-9.305-20.849,3.74-110.754,7.627-145.414c0.501-4.329,0.854-7.775,1.001-10.13c1.296-21.409,15.992-164.033,15.992-164.033
				C732.052,1365.161,682.753,1407.338,686.346,1432.546z"/>
			<path style="fill:#CB8757;" d="M686.346,1432.546c3.622,25.207,27.917,90.728,27.21,113.374
				c-0.559,17.846-0.265,59.073,2.09,86.459l35.102-73.207c0.501-4.329,0.854-7.775,1.001-10.13
				c1.296-21.409,16.361-164.087,16.361-164.087C732.419,1365.107,682.753,1407.338,686.346,1432.546z"/>
			<path style="fill:#D9935C;" d="M763.775,1389.642c0,0-30.652,140.901-34.135,162.055
				c-3.482,21.153-31.397,120.764-25.313,145.725c3.589,14.724,9.847,19.08,9.847,19.08c1.472,2.699-22.773,8.06-24.731-2.271
				c-2.486-13.118-3.008-31.53-6.649-62.744c-6.271-53.745,6.166-84.33,9.181-106.791c3.015-22.461-10.123-93.858-2.832-118.257
				C701.904,1383.74,730.324,1366.234,763.775,1389.642z"/>
			<path style="fill:#B64C41;" d="M681.974,1519.119c0,0,7.981,1.237,19.73,2.062l6.39-25.619l2.239,26.09
				c18.876,0.766,43.524-0.176,61.693-7.686l-3.917-129.012c0,0-26.316,6.942-57.973-5.22
				C710.137,1379.735,668.969,1411.88,681.974,1519.119z"/>
			<path style="fill:#AA413E;" d="M677.572,1694.998c1.46,8.275,1.754,23.152,1.805,26.931h2.598l0.236-19.618
				c0.185,0.236,0.363,0.438,0.523,0.624c2.319,2.589,5.373,15.19,7.633,18.994h28.753c0.295-0.826,0.076-1.636-0.397-2.387v-0.008
				c-1.315-2.066-4.58-3.66-4.58-3.66s-9.202,1.425-18.353-0.877c-3.838-0.961-10.332-35.061-10.332-35.061
				s-9.05,5.507-10.054,8.021C674.916,1689.17,676.02,1692.038,677.572,1694.998z"/>
			<path style="fill:#AA413E;" d="M717.213,1696.593c1.038,7.118,1.392,17.645,1.51,22.941v0.008
				c0.017,1.004,0.034,1.814,0.042,2.387h2.598l0.228-18.884c2.311,2.792,5.322,15.132,7.548,18.884h28.753
				c1.096-3.104-4.977-6.056-4.977-6.056s-9.202,1.425-18.353-0.877c-3.838-0.961-10.332-35.061-10.332-35.061
				s-9.051,5.507-10.054,8.021C713.603,1689.389,715.24,1693.117,717.213,1696.593z"/>
			<path style="fill:#E7F0FD;" d="M707.919,1381.78c0,0,24.172,16.683,60.676,4.479c0,0,12.474-42.669,8.544-83.753
				c-2.64-27.564-18.275-49.267-29.897-57.802c-1.83,1.625-5.05,4.426-28.886-1.354c0,0-10.935,4.586-12.883,8.812
				C701.323,1261.186,715.257,1363.857,707.919,1381.78z"/>
			<path style="fill:#B64C41;" d="M697.791,1395.266c10.778,2.209,19.082-5.392,31.833-9.043c4.24-1.207,7.981-2.709,10.807-4.447
				c11.396-7.009,16.933-58.896,14.959-78.537c-1.944-19.612-37.035-59.89-37.035-59.89c-8.097,6.008-9.61,19.988-14.469,38.333
				C692.196,1325.826,697.791,1395.266,697.791,1395.266z"/>
			<path style="fill:#AA413E;" d="M697.791,1395.266c10.778,2.209,22.647-1.797,31.833-9.043
				c4.683-6.655,8.422-14.783,10.424-24.707c5.801-28.623-17.08-59.691-36.162-79.834
				C692.196,1325.826,697.791,1395.266,697.791,1395.266z"/>
			<path style="fill:#CB7D45;" d="M721.067,1219.248c2.884,4.832,11.987,18.188,25.354,20.269c-0.404-4.022-0.254-7.565-0.059-9.835
				v-0.006c0.14-1.65,0.307-2.626,0.307-2.626l-0.307-0.097L721.067,1219.248z"/>
			<path style="fill:#D9935C;" d="M753.518,1228.829c0,0-31.399,6.306-35.025-13.308c-3.626-19.615-10.121-32.01,9.774-36.866
				c19.894-4.855,25.183,1.907,27.986,8.159C759.056,1193.067,761.592,1226.683,753.518,1228.829z"/>
			<path style="fill:#2B478B;" d="M707.587,1181.613c10.503-13.183,23.667-11.44,30.563-9.243c1.379-0.229,3.324-0.387,5.982-0.449
				c20.497-0.477,14.833,23.198,14.833,23.198c-0.739-14.936-13.677-16.524-13.677-16.524s-0.164-0.048-0.446-0.132
				c1.143,4.16,0.741,10.828-9.3,17.133c-16.196,10.169-14.954,30.507-10.649,36.227
				C724.892,1231.823,692.652,1200.362,707.587,1181.613z"/>
			<path style="fill:#233862;" d="M767.087,1418.632c2.553-10.81,5.439-16.445,8.827-17.227c0.964-0.222,1.941-0.004,2.828,0.63
				c2.627,1.876,4.851,7.635,6.798,17.603c1.399,7.161,2.107,13.913,2.114,13.981l-2.146,0.222
				c-0.007-0.067-0.705-6.723-2.085-13.79c-2.374-12.156-4.737-15.407-5.934-16.262c-0.507-0.363-0.866-0.338-1.091-0.283
				c-4.57,1.055-8.533,19.401-9.956,30.718l-2.14-0.269C764.312,1433.88,765.274,1426.306,767.087,1418.632z"/>
			<g>
				<path style="fill:#233862;" d="M741.951,1473.137l4.694-31.14c0.997-6.612,6.678-11.502,13.365-11.502h33.258
					c3.003,0,5.437,2.434,5.437,5.437v38.015c0,3.002-2.434,5.437-5.437,5.437h-45.94
					C744.001,1479.384,741.455,1476.425,741.951,1473.137z"/>
				<path style="fill:#2B478B;" d="M764.615,1430.495h29.28c2.794,0,5.196,1.979,5.73,4.721l7.251,37.212
					c0.703,3.604-2.057,6.955-5.73,6.955h-31.331c-2.912,0-5.379-2.146-5.782-5.031l-5.199-37.212
					C758.342,1433.63,761.069,1430.495,764.615,1430.495z"/>
			</g>
			<path style="fill:#DA935B;" d="M764.395,1398.034c0,0,13.579,3.556,14.375,6.365c0.795,2.809-3.856,10.788-11.536,8.929
				c-7.681-1.859-13.814-11.012-13.814-11.012L764.395,1398.034z"/>
			<path style="fill:#B64C41;" d="M718.356,1243.349c0,0-20.01,2.599-29.581,22.476c-9.57,19.877,8.237,90.865,10.814,95.651
				c2.577,4.786,32.476,43.06,57.876,46.372c0,0,10.792-3.808,10.425-10.065c0,0-41.63-41.202-44.575-47.091
				c-2.945-5.89,1.166-70.511,0.798-78.977C723.744,1263.248,718.356,1243.349,718.356,1243.349z"/>
		</g>
		<g>
			<path style="fill:#D9935C;" d="M1166.455,1432.374c0.404-10.38,14.424-15.502,14.424-15.502
				c6.828-4.132,6.43-52.551,8.935-81.065c0.609-6.959,1.317-12.673,2.104-16.21c4.005-18.022,5.22-81.774,17.234-91.786
				c12.014-10.012,39.919-14.239,39.919-14.239s-8.984,48.102-18.787,98.349c-10.648,54.617-36.577,106.816-38.824,108.861
				c-0.007,0.007-0.016,0.012-0.023,0.018c-2.31,4.943-8.474,11.803-11.772,14.001c-4.044,2.696-1.887,8.088-6.74,8.628
				C1166.489,1444.143,1166.244,1437.789,1166.455,1432.374z"/>
			<path style="fill:#D9935C;" d="M1248.673,1207.736l0.021,3.945c0,0-1.075,12.339,14.118,14.141
				c15.193,1.806,26.703-4.812,26.292-14.333c-1.368-7.372-2.871-12.434-2.972-18.534c-0.038-2.267,0.117-4.673,0.54-7.388
				l-29.44-0.588l-8.672,1.417L1248.673,1207.736z"/>
			<path style="fill:#CB7D45;" d="M1248.561,1186.395l0.113,21.341c3.128,1.455,6.655,2.342,10.611,2.342
				c13.531,0,22.277-9.922,26.848-17.123c-0.038-2.267,0.117-4.673,0.54-7.388l-29.44-0.588L1248.561,1186.395z"/>
			<path style="fill:#D9935C;" d="M1246.843,1196.765c0,0,37.706,7.617,42.088-15.937c4.382-23.553,12.2-38.434-11.689-44.293
				c-23.89-5.859-30.252,2.256-33.627,9.763C1240.24,1153.803,1237.147,1194.177,1246.843,1196.765z"/>
			<path style="fill:#739AF0;" d="M1249.072,1213.571c0,0-5.18,27.722-11.961,63.058c-2.149,11.213-4.463,23.187-6.826,35.291
				c-9.602,18.823-17.844,31.621-20.389,29.213c-5.193-4.904-14.31-5.509-20.082-5.327c0.609-6.959,1.317-12.673,2.104-16.21
				c0.316-1.424,0.614-3.132,0.903-5.077c3.36-22.676,5.264-77.489,16.331-86.709
				C1221.167,1217.798,1249.072,1213.571,1249.072,1213.571z"/>
			<path style="fill:#4A75CB;" d="M1209.896,1341.133c-5.193-4.904-14.31-5.509-20.082-5.327c0.609-6.959,1.317-12.673,2.104-16.21
				c0.316-1.424,0.614-3.132,0.903-5.077l28.791-69.502C1221.614,1245.017,1212.441,1343.541,1209.896,1341.133z"/>
			<path style="fill:#233862;" d="M1274.491,1721.929c0,0,1.558-11.273,4.822-17.799c3.263-6.527,24.029-2.374,24.029-2.374
				s4.153,3.56,5.043,20.172H1274.491z"/>
			<path style="fill:#233862;" d="M1203.942,1721.929c4.879-2.978,2.052-24.59,2.052-24.59s-22.736-18.189-25.862-4.263
				c-3.126,13.927-21.6,20.179-32.115,21.884c-7.259,1.177-7.732,4.591-8.428,6.969H1203.942z"/>
			<path style="fill:#2B478B;" d="M1250.985,1560.939c-0.926,5.1-1.513,9.283-1.669,12.282
				c-2.114,41.227-34.704,135.492-40.533,137.69c-9.019,3.404-23.223-3.831-30.654-6.198c-3.079-0.984-5.157-4.089-4.472-7.24
				c16.139-74.196,22.071-181.035,24.229-244.289c1.09-31.86,6.559-53.869,6.559-53.869s79.487-21.208,79.958,5.62
				C1284.822,1428.674,1258.074,1521.777,1250.985,1560.939z"/>
			<path style="fill:#233862;" d="M1250.985,1560.939l-53.099-107.756c1.09-31.86,6.559-53.869,6.559-53.869
				s79.487-21.208,79.958,5.62C1284.822,1428.674,1258.074,1521.777,1250.985,1560.939z"/>
			<path style="fill:#2B478B;" d="M1233.3,1405.028l42.02,304.548c0,0,18.453,4.449,32.805,0.89c0,0,12.302-161.972,11.277-201.131
				c-1.025-39.158,8.83-104.78-2.249-112.017C1306.075,1390.081,1233.3,1405.028,1233.3,1405.028z"/>
			<path style="fill:#FFA412;" d="M1323.192,1397.316c0.138,3.529-2.656,6.47-6.181,6.523l-66.217,1.01l-48.637,0.743
				c-2.278,0.04,4.921-18.182,5.069-136.991c0.035-26.511,41.08-55.039,41.836-55.039l0.009,0.009
				c0,3.818,6.016,10.866,15.285,11.471c11,0.721,24.496-4.753,24.496-11.089c0-0.071,1.277,1.313,3.333,4.303
				c5.491,8.001,16.553,27.509,23.615,61.469c5.575,26.819,3.431,62.675,7.444,108.941
				C1323.539,1392.008,1323.107,1394.975,1323.192,1397.316z"/>
			<path style="fill:#739AF0;" d="M1320.749,1404.209c0,0-8.802,3.943-25.266,7.355c-12.241,2.541-28.715,4.793-48.952,4.917
				c-32.186,0.205-44.373-10.889-44.373-10.889c-2.278,0.04,4.921-18.182,5.069-136.991c0.035-26.511,41.08-55.039,41.836-55.039
				l0.009,0.009c0,0-1.055,35.304,9.625,45.686c0,0,14.978-11.569,34.41-44.498c5.491,8.001,15.632,31.006,22.694,64.967
				c1.432,6.911,2.358,14.417,3.008,22.548c1.873,23.432,1.455,52.044,4.436,86.393c0.293,3.342-0.138,6.309-0.054,8.65
				C1323.33,1400.845,1324.278,1404.155,1320.749,1404.209z"/>
			<path style="fill:#4A75CB;" d="M1320.749,1404.209c0,0-8.802,3.943-25.266,7.355c-5.179-7.898-11.708-22.155-12.61-44.622
				c-1.531-37.993,34.56-86.919,34.56-86.919l1.376,22.251c1.873,23.432,1.455,52.044,4.436,86.393
				c0.293,3.342-0.138,6.309-0.054,8.65C1323.33,1400.845,1324.278,1404.155,1320.749,1404.209z"/>
			<path style="fill:#B64C41;" d="M1225.06,1290.017l47.394-27.362c3.9-2.252,8.887-0.916,11.139,2.984l40.566,70.262
				c2.252,3.9,0.915,8.887-2.985,11.139l-47.394,27.363c-3.9,2.252-8.887,0.915-11.139-2.985l-40.565-70.262
				C1219.823,1297.256,1221.159,1292.269,1225.06,1290.017z"/>
			<path style="fill:#D9935C;" d="M1233.104,1327.784c1.08-2.967,11.664-6.823,15.336-6.823c3.63,0,12.951,8.689,13.166,8.89
				c2.669-0.123,28.879-1.382,48.357-4.234c5.117-0.747,9.767-1.606,13.403-2.581c4.468-1.197-17.705-57.393-28.892-90.442
				c-2.67-7.885-4.712-14.453-5.621-18.64c0,0,1.954,0.316,5.024,0.921c8.708,1.718,26.405,5.758,33.938,11.454
				c10.19,7.703,35.625,94.577,20.024,128.154c0,0-12.597,1.228-34.135-0.984c-15.435-1.586-35.466-4.947-58.735-11.787
				c-0.582,0.054-1.118,0.054-1.563,0.014c-3.24-0.297-15.768-3.263-18.792-4.449
				C1231.592,1336.09,1232.024,1330.75,1233.104,1327.784z"/>
			<path style="fill:#739AF0;" d="M1347.84,1354.482c0,0-12.597,1.228-34.135-0.984c1.189-5.851,2.292-17.279-3.742-27.882
				c5.117-0.748,9.767-1.607,13.403-2.581c4.468-1.197-17.705-57.393-28.892-90.442c-0.895-10.684-1.366-17.835-1.366-17.835
				l0.77,0.115c8.708,1.718,26.405,5.758,33.938,11.454C1338.006,1234.031,1363.441,1320.904,1347.84,1354.482z"/>
			<path style="fill:#4A75CB;" d="M1258.695,1259.257c0,0,29.963-13.201,30.407-14.24c0.446-1.038-1.483-9.047-3.56-11.421
				c0,0,14.388,1.335,15.278-0.445c0.89-1.78,1.186-16.613,1.186-16.613s-5.636-5.933-13.053-6.527c0,0-6.493,16.102-8.9,20.915
				C1273.677,1243.683,1258.695,1259.257,1258.695,1259.257z"/>
			<path style="fill:#4A75CB;" d="M1251.576,1233.151c0,0,1.928,15.426,7.119,26.105c0,0-15.648-10.902-16.983-14.462
				s3.782-10.456,3.782-10.456s-9.344-0.223-9.567-3.337c-0.222-3.115,2.893-15.352,2.893-15.352s7.641-5.793,9.866-5.57
				L1251.576,1233.151z"/>
			<path style="fill:#233862;" d="M1236.283,1128.798c0,0,10.515-0.809,22.916-6.201c10.066-4.377,22.766,0.443,26.888,2.614
				c-0.11-0.664-0.376-1.571-1.005-2.48c0,0,1.851,1.312,2.123,3.147c0.191,0.14,0.276,0.237,0.227,0.269
				c0,0,2.099-0.384,3.446,0.223c0,0-0.944-0.135-1.281,0.472c-0.036,0.063-0.089,0.118-0.151,0.166
				c15.702,7.587,17.152,32.402,12.099,38.145c-6.079,6.908-13.368,22.465-13.368,22.465s-2.659-3.675-1.553-9.754
				c1.105-6.08-4.145-6.08-10.777-8.843c-6.632-2.763-1.105-10.5-6.908-15.198c-5.803-4.697-27.08-1.934-26.804-5.526
				C1234.237,1145.421,1236.283,1129.607,1236.283,1128.798z"/>
			<path style="fill:#ED6058;" d="M1273.22,1313.298c2.183,0,3.954,1.77,3.954,3.954c0,2.184-1.77,3.954-3.954,3.954
				c-2.184,0-3.954-1.77-3.954-3.954C1269.265,1315.068,1271.035,1313.298,1273.22,1313.298z"/>
			<g>
				<g>
					<path style="fill:#D86713;" d="M1110.152,1707.542c2.243,5.241-0.189,11.308-5.43,13.552
						c-5.242,2.242-11.309-0.188-13.552-5.43c-2.243-5.242,0.188-11.309,5.43-13.552
						C1101.841,1699.87,1107.908,1702.302,1110.152,1707.542z"/>
					<path style="fill:#F1A34F;" d="M1111.093,1707.542c2.243,5.241-0.188,11.308-5.429,13.552
						c-5.242,2.242-11.309-0.188-13.552-5.43s0.188-11.309,5.43-13.552C1102.783,1699.87,1108.85,1702.302,1111.093,1707.542z"/>
				</g>
				<g>
					<path style="fill:#D86713;" d="M1193.014,1707.542c2.243,5.241-0.188,11.308-5.43,13.552
						c-5.241,2.242-11.309-0.188-13.552-5.43c-2.243-5.242,0.189-11.309,5.43-13.552S1190.771,1702.302,1193.014,1707.542z"/>
					<path style="fill:#F1A34F;" d="M1193.956,1707.542c2.243,5.241-0.188,11.308-5.429,13.552
						c-5.242,2.242-11.309-0.188-13.552-5.43s0.189-11.309,5.43-13.552C1185.647,1699.87,1191.713,1702.302,1193.956,1707.542z"/>
				</g>
				<path style="fill:#D86713;" d="M1088.804,1706.214l14.679,5.271c1.484,0.534,3.052,0.798,4.63,0.783l83.293-0.853l9.093-15.076
					L1088.804,1706.214z"/>
				<path style="fill:#D86713;" d="M1144.224,1449.33c0.217-1.963,3.033-21.98,26.979-22.634l17.403-1.835
					c1.136-0.224,8.486-1.455,14.129,2.846c3.807,2.903,5.901,7.551,6.221,13.819c0.415,8.088-9.754,60.415-14.403,83.803
					l31.149,6.227c0,0,13.108,5.332,10.508,28.299c-2.288,20.21-12.319,133.613-12.319,133.613s-2.093,23.598-52.496,16.754
					l9.357-187.653l9.442,1.888c6.075-30.513,14.668-75.851,14.317-82.704c-0.25-4.885-1.749-8.414-4.452-10.488
					c-4.338-3.328-10.578-2.042-10.634-2.029l-17.845,1.895l-0.177,0.011c-21.047,0.53-22.698,17.938-22.757,18.672l-0.009,0.118
					l-14.854,81.472l-4.379-0.799L1144.224,1449.33z"/>
				<path style="fill:#F1A34F;" d="M1205.673,1553.763l-12.089,127c-0.492,5.138-2.314,9.857-5.114,13.819
					c-5.182,7.341-13.712,12.1-23.277,12.158l-41.688,0.259l-1.031,0.01l-26.109,0.161c-2.627,0.017-5.163-0.319-7.565-0.955
					c-0.564-0.148-1.118-0.313-1.665-0.493c-9.038-2.998-15.992-10.353-18.568-19.401c-1.096-3.851-1.403-8.006-0.739-12.264
					l18.932-121.514c2.022-12.957,12.572-22.9,25.627-24.149l7.363-0.704l1.756-0.165l0.003-0.002l1.476-0.14l24.614-2.354
					l3.021-0.287l23.753-2.268c3.728-0.354,7.333,0.015,10.69,0.982c0.22,0.064,0.44,0.129,0.659,0.202l1.373,0.469
					C1198.813,1528.485,1206.953,1540.31,1205.673,1553.763z"/>
				<path style="opacity:0.4;fill:#D86713;" d="M1188.47,1694.581c-5.182,7.341-13.712,12.1-23.277,12.158l-41.688,0.259
					l-1.031,0.01l-26.109,0.161c-2.627,0.017-5.163-0.319-7.565-0.955c-0.564-0.148-1.118-0.313-1.665-0.493
					c-9.038-2.998-19.458-13.94-19.606-25.548c0,0,88.187-1.153,106.62,1.693C1183.657,1683.335,1186.502,1689.984,1188.47,1694.581
					z"/>
				<g>
					<path style="fill:#D86713;" d="M1079.123,1685.308c0.718-5.12,17.647-125.336,20.275-136.05
						c2.305-9.387,15.936-18.745,20.354-21.568l1.756-0.165l0.003-0.002l1.476-0.14c-0.183,0.113-19.519,11.895-22.061,22.246
						c-2.612,10.64-20.069,134.64-20.243,135.892c-0.013,0.099-0.493,12.083,9.443,21.01l-1.324-0.317
						c-0.564-0.148-1.118-0.313-1.665-0.493C1077.802,1696.455,1079.058,1685.776,1079.123,1685.308z"/>
					<path style="fill:#D86713;" d="M1133.402,1549.357c1.954-12.838,9.857-20.818,14.198-24.327l3.021-0.287
						c-2.785,1.88-13.399,9.952-15.665,24.848c-2.656,17.472-13.035,144.38-13.139,145.657l-0.007,0.093l-0.028,0.085
						c-0.02,0.063-1.501,6.914,2.77,11.566l-1.047,0.007l-1.031,0.01c-4.089-4.988-2.471-11.113-2.219-11.973
						C1120.578,1691.111,1130.767,1566.688,1133.402,1549.357z"/>
					<path style="fill:#D86713;" d="M1169.464,1548.645c2.48-16.298,13.299-23.772,15.601-25.189c0.22,0.064,0.44,0.129,0.659,0.202
						l1.372,0.47c-0.082,0.048-4.098,2.317-7.559,6.244c-3.459,3.931-7.222,9.982-8.517,18.509
						c-2.656,17.463-10.885,143.948-10.969,145.221l-0.004,0.1l-0.03,0.091c-0.02,0.064-0.382,7.802,3.888,12.455l-2.627,0.017
						c-3.264-4.252-3.062-11.942-2.79-12.854C1158.752,1689.868,1166.828,1565.975,1169.464,1548.645z"/>
				</g>
			</g>
		</g>
		<g>
			<g id="man_5_">
				<g>
					<path style="fill:#233862;" d="M400.395,1690.258c2.007,6.765,11.285,11.285,12.534,19.56
						c0.978,6.418,4.208,10.568,7.717,12.111h24.89c0.59-1.577,1.342-5.507-5.001-6.899c-8.029-1.763-11.049-11.488-10.551-20.512
						c0.211-3.787,0.11-8.097-0.076-11.833c-0.253-5.171-0.675-9.227-0.675-9.227l-17.055-4.015l-1.788,2.302l-1.72,2.21
						C408.669,1673.954,398.387,1683.485,400.395,1690.258z"/>
					<path style="fill:#233862;" d="M536.331,1721.929h58.551c-0.683-2.117-2.749-5.449-8.923-6.444
						c-8.992-1.45-24.57-6.689-28.045-18.176c-0.11-0.371-0.211-0.743-0.295-1.13c-2.758-12.289-22.815,3.761-22.815,3.761
						s-0.059,0.489-0.143,1.316C534.214,1705.558,533.108,1719.07,536.331,1721.929z"/>
					<path style="fill:#2B478B;" d="M583.574,1393.598c0,0-3.047,38.014-6.628,83.708c-4.867,62.072-10.72,138.319-11.299,152.763
						c-1.001,25.081-5.018,65.202-5.018,65.202s-9.525,9.531-28.588,5.514c0,0-16.987-57.273-21.84-117.871
						c-0.075-0.993-0.151-1.993-0.226-2.993c-4.514-61.689-11.533-191.589-11.533-191.589L583.574,1393.598z"/>
					<path style="fill:#233862;" d="M583.574,1393.598c0,0-3.047,38.014-6.628,83.708l-66.744,105.608
						c-0.075-0.993-0.151-1.993-0.226-2.993c-4.514-61.689-11.533-191.589-11.533-191.589L583.574,1393.598z"/>
					<path style="fill:#2B478B;" d="M569.659,1398.112c0,0-54.918,137.671-91.028,202.369
						c-36.11,64.698-47.395,82.754-47.395,82.754s-20.688-8.276-22.569-13.918c0,0,13.809-124.902,37.992-155.35
						c13.665-17.205,29.716-68.835,30.468-86.891c0.752-18.056,4.89-53.789,4.89-53.789L569.659,1398.112z"/>
				</g>
				<path style="fill:#AB7041;" d="M625.198,1360.105l3.139,6.257c0,0,15.963,2.231,11.569,18.871c0,0-2.367,6.846-6.769,4.68
					c-4.402-2.166-2.233-1.983-8.542-4.898c-6.309-2.915-9.959-8.517-8.549-13.655l-1.01-5.447L625.198,1360.105z"/>
				<path style="fill:#9C5F33;" d="M541.493,1185.603c2.441-14.417,2.516-22.962,2.516-22.962l-27.864-22.456
					c1.035,30.878-18.751,45.726-18.751,45.726s37.132,18.277,58.594,11.507C555.989,1197.418,550.705,1190.665,541.493,1185.603z"
					/>
				<path style="fill:#AB7041;" d="M550.573,1162.131c0,0-35.447,5.889-38.775-16.243c-3.328-22.131-10.144-36.277,12.348-40.972
					c22.492-4.696,28.169,3.087,31.076,10.203C558.13,1122.237,559.709,1160.029,550.573,1162.131z"/>
				<path style="fill:#233862;" d="M512.032,1147.415c0,0,0.715-29.645,33.013-34.404c22.123-3.259,8.726-21.745,6.196-24.673
					c0,0-16.912,3.227-34.221,7.026C480.692,1103.339,508.193,1143.007,512.032,1147.415z"/>
				<path style="fill:#74ACBE;" d="M621.478,1368.802c4.738-4.861,8.257-11.192,8.257-11.192s-40.275-50.039-43.549-55.228
					c-3.274-5.189-27.734-88.421-27.734-88.421l-61.856-12.53c0,0,51.631,106.519,60.184,119.504
					c14.135,21.457,56.419,53.397,56.419,53.397S617.756,1372.621,621.478,1368.802z"/>
				<path style="fill:#9ED9F0;" d="M585.942,1396.764c-0.646,0.537-1.396,0.86-2.256,0.86c-8.059-0.109-31.559,4.367-51.444,2.324
					c-16.763-1.609-31.601-6.574-47.535-13.717c-2.115-0.949-6.986-3.547-6.876-5.913c0.071-2.589,0.329-6.345,0.651-11.075
					c1.128-16.446,3.094-44.734,1.177-77.369c-0.345-6.077-0.525-12.105-0.548-18.04c-0.164-44.23,8.523-83.747,26.147-96.914
					c1.506-1.079,10.83,4.052,19.322,8.24c7.845,3.87,15.691,4.298,23.104,2.797l7.413,6.554
					c9.027,8.382,18.915,19.775,23.213,37.075c3.657,14.721,5.804,41.269,6.986,68.78c0.537,12.466,0.969,25.042,1.079,36.971v0.427
					c0.104,1.182,0.104,2.474,0.104,3.657C586.911,1372.046,586.478,1396.331,585.942,1396.764z"/>
				<path style="fill:#74ACBE;" d="M478.483,1369.243c1.128-16.446,3.094-44.734,1.177-77.369
					c-0.345-6.077-0.525-12.105-0.548-18.04c7.342-17.809,13.343-30.724,13.343-30.724h18.505
					C510.959,1243.109,524.526,1335.775,478.483,1369.243z"/>
				<g>
					<path style="fill:#D86713;" d="M334.982,1454.298l14.367-46.227c4.315-13.882,19.204-21.71,33.087-17.396l106.67,33.153
						c13.883,4.315,21.711,19.204,17.396,33.087l-14.367,46.226c-4.314,13.883-19.203,21.711-33.086,17.396l-106.67-33.152
						C338.496,1483.07,330.668,1468.181,334.982,1454.298z"/>
					<path style="fill:#F1A34F;" d="M320.766,1450.436l14.533-46.769c4.327-13.933,19.272-21.786,33.206-17.459l36.664,11.395
						l3.095-9.97c1.434-4.613,6.351-7.195,10.965-5.769l2.092,0.649l19.078,5.929l10.686,3.324c2.227,0.7,4.057,2.218,5.145,4.293
						c1.088,2.075,1.315,4.444,0.615,6.672l-3.095,9.969l21.238,6.604c0.818,0.253,1.61,0.539,2.378,0.869
						c0.008,0,0.017,0.008,0.026,0.008c0.008,0,0.008,0.008,0.017,0.008c0.033,0.017,0.076,0.034,0.11,0.051
						c12.331,5.246,18.994,19.205,14.929,32.27l-14.533,46.768c-3.745,12.053-15.444,19.559-27.547,18.556c-0.008,0-0.008,0-0.016,0
						c-1.881-0.152-3.771-0.515-5.643-1.096l-0.05-0.017l-106.433-33.079C324.291,1479.316,316.431,1464.37,320.766,1450.436z
						 M448.512,1411.073l3.095-9.969c0.54-1.721-0.43-3.559-2.151-4.09l-10.382-3.23l-17.746-5.516l-3.728-1.156
						c-0.321-0.101-0.65-0.152-0.97-0.152c-1.392,0-2.69,0.902-3.121,2.302l-3.104,9.97L448.512,1411.073z"/>
				</g>
				<path style="fill:#AB7041;" d="M442.481,1375.003l-3.513,6.055c0,0,6.883,14.574-9.444,20.018c0,0-7.024,1.772-7.625-3.097
					c-0.6-4.87,0.435-2.954-0.584-9.83c-1.02-6.874,1.665-12.997,6.736-14.634l4.002-3.83L442.481,1375.003z"/>
				<path style="fill:#9ED9F0;" d="M433.168,1376.659c6.664,1.299,13.887,0.772,13.887,0.772s19.783-61.112,22.329-66.695
					c2.547-5.582,58.761-71.656,58.761-71.656l-23.419-58.606c0,0-60.802,101.563-66.975,115.834
					c-10.202,23.582-13.744,76.455-13.744,76.455S427.935,1375.638,433.168,1376.659z"/>
			</g>
		</g>
		<g>
			<path style="fill:#D86713;" d="M934.755,1715.401c0.262,2.902,0.843,5.415,1.965,6.528h55.388
				c-0.32-1.67-1.821-5.912-8.789-6.891c-8.738-1.231-24.147-6.089-26.973-17.569c-2.834-11.479-21.348,3.973-21.348,3.973
				S934.19,1709.277,934.755,1715.401z"/>
			<path style="fill:#D86713;" d="M885.853,1721.929h57.463c-0.987-1.847-3.433-5.22-8.561-6.528
				c-0.573-0.151-1.18-0.269-1.821-0.362c-8.747-1.231-24.148-6.089-26.982-17.569c-2.834-11.479-21.348,3.973-21.348,3.973
				S882.934,1717.493,885.853,1721.929z"/>
			<path style="fill:#2B478B;" d="M910.81,1411.624c0,0,0.044,2.074,0.125,5.803c0.519,24.045,2.574,117.015,4.523,168.847
				c0.082,1.886,0.15,3.711,0.219,5.485c0.037,0.937,0.075,1.88,0.112,2.811c1.169,25.057,4.567,49.596,8.003,69.217
				c4.38,25.026,8.827,42.069,8.827,42.069c16.695,3.381,27.515-2.967,27.515-2.967s4.501-38.839,6.214-62.347
				c0.562-7.627,3.31-33.653,6.759-65.313c2.674-24.483,5.766-52.338,8.602-77.67c0.15-1.35,0.294-2.699,0.45-4.029
				c4.58-40.956,8.371-74.316,8.371-74.316l-29.517-2.811L910.81,1411.624z"/>
			<path style="fill:#233862;" d="M923.792,1663.788l49.315-88.559c2.674-24.483,5.766-52.338,8.602-77.67
				c0.15-1.35,0.294-2.699,0.45-4.029c4.58-40.956,8.371-74.316,8.371-74.316l-29.517-2.811l-50.077,1.025L923.792,1663.788z"/>
			<path style="fill:#2B478B;" d="M985.075,1419.434c0,0-27.592,136.395-50.075,202.224c-22.483,65.83-22.764,84.117-22.764,84.117
				s-20.63,4.473-29.719-0.721c0,0-5.194-124.791,8.41-157.936c8.998-21.921,15.881-68.576,13.542-85.38
				c-2.339-16.804-4.523-50.506-4.523-50.506L985.075,1419.434z"/>
			<path style="fill:#D9935C;" d="M951.574,1236.327l-30.682-8.652c0,0,5.208-12.748,7.017-26.039
				c1.001-7.378,0.96-14.917-1.605-20.541c-0.152-0.351-0.325-0.696-0.503-1.031c-1.169-2.185-0.457-3.186,1.103-3.43
				c2.784-0.447,8.266,1.509,10.582,3.44c3.521,2.936,20.48,11.549,21.364,12.001c0.026,0.01,0.036,0.015,0.036,0.015
				s0.026,0.127,0.061,0.366l0.005,0.021c0.096,0.595,0.284,1.849,0.467,3.597C960.278,1204.257,961.009,1223.284,951.574,1236.327z
				"/>
			<path style="fill:#F1A34F;" d="M907.287,1426.729c6.522,4.617,16.798,6.285,28.118,6.11c13.219-0.213,27.849-2.942,39.544-6.441
				c6.29-1.88,11.726-3.979,15.649-6.022c17.473-9.115,14.993-21.241,14.575-66.638c-0.425-46.335-28.94-106.228-34.075-116.255
				c-9.14-17.848-50.142-11.262-50.142-11.262c-8.996,4.311-12.195,18.686-13.069,37.464c-0.974,20.859,0.918,47.159,0.918,71.142
				c0,19.829-3.743,37.358-6.466,51.895C898.809,1405.602,896.991,1419.433,907.287,1426.729z"/>
			<path style="opacity:0.4;fill:#D86713;" d="M902.339,1386.723c7.89,16.63,23.427,35.34,33.066,46.116
				c13.219-0.213,27.849-2.942,39.544-6.441c4.922-11.782,7.078-31.448,2.53-63.914c-3.467-24.751-28.736-124.318-28.736-124.318
				c-20.403-2.661-33.092,8.453-40.856,25.52c-0.974,20.859,0.918,47.159,0.918,71.142
				C908.805,1354.656,905.062,1372.186,902.339,1386.723z"/>
			<path style="fill:#D6716B;" d="M910.553,1465.85h18.524v-5.758c0-9.557,7.775-17.332,17.331-17.332h15.331
				c9.557,0,17.331,7.775,17.331,17.332v5.758h18.525c5.56,0,10.108,4.549,10.108,10.109v47.171c0,5.56-4.548,10.109-10.108,10.109
				h-87.043c-5.56,0-10.108-4.549-10.108-10.109v-47.171C900.445,1470.399,904.993,1465.85,910.553,1465.85z M972.2,1460.091
				c0-5.768-4.692-10.46-10.461-10.46h-15.331c-5.768,0-10.461,4.692-10.461,10.46v5.758H972.2V1460.091z"/>
			<path style="fill:#DA935B;" d="M959.38,1431.158c0,0,10.671,20.58,5.336,28.584c-5.336,8.004-24.391-2.286-25.916-6.86
				c-1.524-4.573,0-26.678,0-26.678L959.38,1431.158z"/>
			<path style="fill:#F1A34F;" d="M913.735,1270.184c0,0,3.971,56.633,3.92,80.062c-0.05,23.429,18.593,85.746,18.593,85.746
				s12.339,0.989,17.18,0.364c5.578-0.72,8.902-3.28,8.902-3.28s-4.095-73.627,3.718-101.846
				c7.812-28.219,8.224-84.899,8.224-84.899s-4.34-12.235-30.318-8.373C913.134,1242.539,913.735,1270.184,913.735,1270.184z"/>
			<path style="fill:#F1A34F;" d="M926.567,1200.166c0,0-6.992,22.103-5.612,26.055c0,0,37.927,5.106,53.316,20.11
				c0,0-5.001-21.544-11.157-26.93C956.96,1214.015,926.567,1200.166,926.567,1200.166z"/>
			<path style="fill:#CB8757;" d="M959.886,1196.072c0,0-0.162,0-0.468,0c-3.44-0.026-24.875,0.046-30.896,5.137
				c-0.218,0.183-0.422,0.325-0.615,0.427c1.001-7.378,0.96-14.917-1.605-20.541c0.218-1.722,0.427-3.262,0.6-4.461
				c2.784-0.447,8.266,1.509,10.582,3.44c3.521,2.936,20.48,11.549,21.364,12.001l0.097,0.38l0.005,0.021L959.886,1196.072z"/>
			<path style="fill:#D9935C;" d="M973.227,1194.711c0,0-35.456,6.787-39.343-15.359c-3.887-22.145-11.081-36.184,11.393-41.453
				s28.367,2.407,31.462,9.483C979.835,1154.458,982.35,1192.374,973.227,1194.711z"/>
			<path style="fill:#233862;" d="M927.499,1188.975c0,0,1.844-1.406-5.334-12.285c-7.178-10.88-10.583-7.895-10.672-19.488
				c-0.088-11.594-4.402-18.555,9.052-26.102c13.455-7.547,11.312-14.539,19.384-16.212c8.072-1.673,19.813,4.979,26.739,3.579
				c6.927-1.401,28.628,26.843,14.728,33.527c0,0-6.457,0.321-10.992-2.474c-4.534-2.796-21.175-5.624-23.121-0.565
				C945.338,1154.014,934.798,1185.066,927.499,1188.975z"/>
		</g>
		<g>
			<path style="fill:#233862;" d="M1467.195,1426.735c0,0-25.189-11.465-44.248-1.435c-19.058,10.031-7.406,92.82,19.846,100.845
				l0,0C1442.793,1526.145,1501.298,1597.257,1467.195,1426.735z"/>
			<path style="fill:#A05F32;" d="M1511.797,1436.326c1.242-9.685-1.173-27.243-1.173-27.243s8.557-0.441,13.348,10.837
				c9.93,23.373,5.616,73.826,5.015,81.048c0,0,3.41,14.343-1.657,39.151c0.747,1.764,1.758,4.045,2.36,4.961
				c0.09,0.101,0.172,0.209,0.246,0.32l0,0c0.616,0.931,0.674,2.176,0.043,3.176l-3.281,5.2c-0.31,0.491-0.746,0.856-1.24,1.085l0,0
				c-0.164,0.076-0.333,0.135-0.508,0.179l-4.064,0.96l-0.4-13.845c0.005-0.008,0.031,0.002,0.048,0.004
				C1519.141,1528.596,1510.658,1445.22,1511.797,1436.326z M1522.294,1543.165l0.086-0.113l-0.169,0.101
				C1522.249,1543.165,1522.283,1543.176,1522.294,1543.165z"/>
			<path style="fill:#AA413E;" d="M1439.26,1710.244l3.237,11.685h27.351C1469.848,1721.929,1477.991,1706.99,1439.26,1710.244z"/>
			<path style="fill:#AA413E;" d="M1497.911,1710.244l3.237,11.685h27.352C1528.499,1721.929,1536.642,1706.99,1497.911,1710.244z"
				/>
			<path style="fill:#2B478B;" d="M1448.553,1339.128c3.411-5.283,8.201-5.511,12.806-9.985c4.335-4.213,12.414-6.982,18.846-6.982
				c20.58,0,38.402,12.6,34.339,33.965c-1.291,6.789-0.2,12.137-5.702,20.073c-6.869,9.905-15.22,17.854-28.636,17.854
				c-7.118,0-13.357-1.642-18.846-6.832c-2.99-2.826-7.276-3.174-9.908-6.25c-5.316-6.214-4.92-14.401-6.872-22.864
				C1442.793,1350.358,1444.997,1344.636,1448.553,1339.128z"/>
			<path style="fill:#A05F32;" d="M1494.482,1383.409c0,0-4.514,17.453,4.614,24.875l-25.651,13.11l-3.379-16.968
				c0,0,4.845-13.257,3.515-31.719L1494.482,1383.409z"/>
			<path style="fill:#AF7041;" d="M1495.142,1392.197c0,0-26.255,3.199-26.815-15.298c-0.56-18.496,10.383-30.479,17.687-30.341
				c14.566,0.273,16.968,6.158,18.657,12.287C1506.36,1364.974,1507.229,1390.894,1495.142,1392.197z"/>
			<path style="fill:#233862;" d="M1520.192,1531.995l-51.886,4.289c0,0-6.094,91.002,27.999,175.362c0,0,4.3,1.623,15.546,1.623
				c7.872,0,13.526-2.176,13.526-2.176L1520.192,1531.995z"/>
			<path style="fill:#2B478B;" d="M1439.675,1537.223c0,0-15.964,62.018-3.019,175.2c0,0,6.736,2.188,16.998,2.111
				c11.111-0.085,18.219-2.104,18.219-2.104l16.892-146.942c0.644-4.352,9.145-27.203,9.145-27.203L1439.675,1537.223z"/>
			<path style="fill:#FFFFFF;" d="M1438.497,1445.25l-3.394-27.867c0.515-0.72,0.927-1.337,1.441-1.954
				c5.963-7.301,28.895-10.489,33.522-11.003c0.206,0.205,10.797,8.947,18.407,7.917c6.478-0.822,7.592-4.259,7.387-7.961
				c13.573,2.262,21.236,6.576,21.236,6.576c13.828,5.183,16.607,51.126,16.607,51.126c-1.836-0.547-11.014,1.06-15.272,1.855
				l1.714,68.102c-33.008,14.397-80.517,5.141-80.517,5.141l0.103-0.411l3.188-54.501l-2.982-24.885L1438.497,1445.25z"/>
			<path style="fill:#FFFFFF;" d="M1488.12,1381.536c0,0,0.572,2.307,6.322,1.882c0,0,4.828-0.356,4.65-2.896
				C1499.092,1380.522,1494.386,1378.768,1488.12,1381.536z"/>
			<path style="fill:#9ED9F0;" d="M1459.656,1534.972c-2.245,2.81-13.338,4.285-19.981,2.25l3.268-54.911l-4.453-37.02l4.303-1.998
				c0,0,18.892,15.155,16.683,27.234C1457.267,1482.612,1462.545,1531.361,1459.656,1534.972z"/>
			<path style="fill:#FFFFFF;" d="M1419.062,1448.027c0,0,15.922,5.049,21.588,9.792c1.107,0.927,0.732,0.536,1.371,1.014
				l20.435-39.188l3.805-7.507l3.497-7.095l0.308-0.617c0,0-0.308,0-0.822,0.103c-1.954,0.205-6.788,0.822-12.34,2.056
				c-3.497,0.823-7.302,1.749-10.694,3.085h-0.103c-4.114,1.542-7.61,3.496-9.563,5.758c-0.515,0.618-0.927,1.234-1.441,1.954
				C1428.42,1426.946,1419.062,1448.027,1419.062,1448.027z"/>
			<path style="fill:#2B478B;" d="M1440.553,1521.758c0,0,71.058-75.993,25.708-109.619c-2.674-2.057-5.759-3.907-9.357-5.553
				c-3.497,0.823-7.302,1.749-10.694,3.085c3.701,1.028,10.694,3.702,16.247,9.974c11.003,12.237,16.144,38.254-21.286,92.447
				L1440.553,1521.758z"/>
			<path style="fill:#2B478B;" d="M1492.513,1346.729c0,0-22.438-0.014-17.281,15.39c3.249,9.709-7.556,11.219-7.556,11.219
				s-4.685-11.493-5.2-15.562c-0.394-3.114,0.729-10.265,3.258-12.124C1471.131,1341.684,1492.513,1346.729,1492.513,1346.729z"/>
			<path style="fill:#A05F32;" d="M1419.446,1448.172c6.934,2.141,18.016,6.513,21.204,9.647c-3.526,8.107-5.85,13.759-5.85,13.759
				c2.651-1.179,16.36-2.291,23.464-2.8c0,0,0,0,0.001,0c0.805-0.059,7.305-2.19,7.305-2.19s0.053-11.096,12.745-11.974
				c0,0,5.286,0.032,4.201,3.641c-1.084,3.609-1.198,2.042-2.613,7.169c-1.415,5.127-5.102,9.026-9.027,9.26
				c-18.844,15.844-44.79,15.973-52.611,15.608c-1.394-0.065-2.59-1.039-2.903-2.398
				C1412.395,1475.019,1414.158,1461.664,1419.446,1448.172z"/>
		</g>
	</g>
	<path style="fill:#283250;" d="M2785.951,1724.076H212.049c-1.137,0-2.067-0.931-2.067-2.067v-0.16c0-1.137,0.93-2.067,2.067-2.067
		h2573.902c1.137,0,2.066,0.931,2.066,2.067v0.16C2788.018,1723.146,2787.088,1724.076,2785.951,1724.076z"/>
</g>
</svg>
